<?xml version="1.0" encoding="utf-8"?>
<!-- Generator: Adobe Illustrator 16.0.4, SVG Export Plug-In . SVG Version: 6.00 Build 0)  -->
<!DOCTYPE svg PUBLIC "-//W3C//DTD SVG 1.1//EN" "http://www.w3.org/Graphics/SVG/1.1/DTD/svg11.dtd">
<svg version="1.1" id="Layer_1" xmlns="http://www.w3.org/2000/svg" xmlns:xlink="http://www.w3.org/1999/xlink" x="0px" y="0px"
	 width="595.28px" height="841.89px" viewBox="0 0 595.28 841.89" enable-background="new 0 0 595.28 841.89" xml:space="preserve">
<g>
	<g>
		<path fill-rule="evenodd" clip-rule="evenodd" fill="#103D6D" d="M164.648,320.812c0.95,0.996,2.372,1.712,3.019,2.969
			c0.53,1.03,0.303,2.344,1.075,3.291c0.987,1.21,2.573-1.08,3.208-1.683c2.252-2.139,2.792,2.27,3.368,3.833
			c1.655,4.501,3.311,9.001,4.967,13.502c-2.324,2.57-5.556,3.908-8.625,5.351c-3.691,1.736-6.943,4.187-10.52,6.123
			c-4.037,2.186-11.524,4.346-12.282-2.235c-0.213-1.852,0.03-3.711,0.084-5.564c0.105-3.612-0.754-7.402-1.175-10.986
			c-1.053-8.958-2.699-17.782-3.368-26.786c-0.677-9.108-2.017-18.084-3.412-27.106c-0.667-4.316-1.372-8.627-2.172-12.92
			c-0.778-4.176-1.198-8.579-3.461-12.203c-1.424-2.281-1.381-5.92-2.291-8.504c-0.961-2.732-2.275-5.344-3.968-7.697
			c-3.808-5.296-9.322-8.538-15.178-11.159c-3.259-1.459-6.592-2.745-9.87-4.159c-2.673-1.152-5.207-3.197-8.01-3.957
			c-1.835-0.498-4.193,1.274-5.403,2.526c-1.643,1.698-1.787,4.208-0.427,6.098c-3.396,2.06,3.712,7.846-2.202,8.119
			c-0.02,0.001,1.371,3.747,1.351,4.324c-0.042,1.158-0.944,1.845-1.195,2.921c-0.338,1.451-0.073,2.969-0.229,4.439
			c-0.194-0.625-0.388-1.25-0.583-1.875c-0.142,0.447-0.581,1.629-0.732,1.847c0.446,0.015,0.916-0.006,1.366-0.022
			c-2.033,3.161-0.076,6.534,0.48,9.795c0.75,4.408,0.425,9.176,0.397,13.631c-0.056,9.048,0.406,18.046,0.934,27.077
			c0.534,9.143,1.237,18.288,2.633,27.345c1.359,8.815,2.683,17.495,3.057,26.425c0.382,9.104,0.187,18.224,0.506,27.332
			c0.283,8.083-0.042,16.791,3.157,24.374c2.625,6.221,7.043,11.403,11.261,16.588c4.849,5.958,10.176,11.267,16.242,16.03
			c3.002,2.358,6.503,3.939,9.58,6.206c3.368,2.481,6.458,5.314,9.585,8.087c6.146,5.448,12.717,10.077,19.48,14.714
			c3.186,2.184,6.541,3.706,9.923,5.512c3.638,1.941,6.681,4.781,10.049,7.126c2.456,2.38,4.72,5.807,6.73,8.64
			c2.6,3.663,4.972,7.496,7.38,11.286c2.175,3.423,4.447,6.738,6.752,10.071c2.237,3.234-4.892,1.306-6.112,1.641
			c-3.531,0.97-1.563,6.94-1.338,9.442c0.419,4.671,0.723,9.353,0.881,14.039c0.307,9.096-0.092,18.191,0.226,27.29
			c0.319,9.144,0.903,18.278,1.012,27.429c0.12,10.159-1.104,20.269-0.579,30.423c0.182,3.528,0.044,7.503,0.977,10.941
			c1.085,4,6.217,2.272,9.253,1.95c9.906-1.05,19.825-1.507,29.764-2.162c4.991-0.329,10.009-0.515,15-0.066
			c2.701,0.242,7.54,1.702,9.16-1.224c2.55,0.248,5.107,0.581,7.674,0.479c1.273-0.05,2.544-0.21,3.778-0.534
			c0.965-0.254,2.351-1.236,3.253-0.854c-0.484-0.603-0.236-0.676,0.744-0.218c0.967,0.177,1.945,0.292,2.926,0.351
			c1.923,0.115,3.854,0.012,5.764-0.226c3.524-0.438,6.972-1.316,10.433-2.088c7.069-1.576,14.409-0.896,21.383-2.772
			c3.332-0.896,6.135-2.368,9.677-2.336c1.62,0.015,3.235,0.214,4.822,0.534c1.484,0.3,3.214,1.205,4.734,0.703
			c2.62-0.865,3.963-4.171,4.059-6.701c0.075-1.999-0.494-4.034-0.609-6.036c-0.123-2.166-0.085-4.339,0.016-6.506
			c0.185-3.973,0.576-7.938,0.551-11.919c-0.022-3.636-0.476-7.264-0.258-10.901c0.229-3.821,1.157-7.378,0.993-11.252
			c-0.181-4.281-0.24-8.491-0.098-12.776c0.263-7.895,0.617-15.787,1.01-23.677c0.2-4.008,0.413-8.015,0.63-12.021
			c0.118-2.186,0.237-4.372,0.354-6.558c0.059-1.093,0.117-2.186,0.176-3.278c0.072-1.372,0.054-1.09,1.157-1.467
			c-1.037-1.626-0.627-5.95,1.776-6.489c-0.063,0.047-0.05,0.062,0.043,0.049c-0.436-3.294,1.352-7.594,2.485-10.631
			c1.468-3.935,3.398-7.683,4.785-11.649c2.509-7.174,7.26-12.439,12.225-18.039c12.014-13.549,22.86-28.25,34.218-42.35
			c5.279-6.554,11.221-12.653,16.04-19.562c4.933-7.071,9.303-14.51,14.038-21.71c2.091-3.18,4.369-5.863,5.271-9.591
			c0.362-1.496,1.747-1.776,2.902-2.588c1.467-1.031,2.706-2.34,3.67-3.851c0.684-1.07,2.259-6.636,3.742-6.632
			c2.808,0.007,5.137-1.439,6.491-3.873c1.054-1.894,1.363-3.941,1.728-6.041c0.646-3.731,2.157-7.206,4.126-10.422
			c1.857-3.037,4.136-5.785,6.013-8.806c2.232-3.594,3.993-7.453,6.115-11.11c4.25-7.327,9.423-14.33,14.27-21.277
			c4.778-6.849,9.918-13.106,13.652-20.628c1.571-3.165,3.339-6.311,4.78-9.527c1.448-4.159,3.3-8.164,5.293-12.087
			c1.838-3.619,3.797-7.174,5.683-10.768c1.725-3.287,3.734-6.4,5.461-9.654c1.601-3.019-1.383-5.086-3.836-6.36
			c-3.446-1.79-7.536-2.173-11.303-1.326c-3.485,0.785-6.636,2.524-9.827,4.062c-2.826,1.362-6.404,1.972-8.535,4.448
			c-0.263,0.306-0.693,1.334-1.09,1.292c0.101,0.251,0.157,0.247,0.169-0.013c-0.465,1.875-2.319,2.676-3.851,3.791
			c-1.764,1.286-3.531,2.566-5.297,3.852c-1.765,1.285-3.526,2.574-5.279,3.875c-0.462,0.343-3.253,3.375-2.902,3.369
			c-0.3,0.005-0.863-0.583-1.451,0.182c-0.653,0.849-0.233,1.287-1.379,0.815c-1.985-0.816-1.354,1.312-1.921,2.368
			c-0.549,1.023-2.216,1.99-3.076,2.788c-1.412,1.31-2.779,2.668-4.103,4.067c-2.63,2.781-5.085,5.723-7.392,8.776
			c-9.204,12.182-15.99,25.929-23.26,39.292c-1.732-0.872-2.291-2.461-2.371-4.293c-0.083-1.938-0.838-3.824-0.886-5.674
			c-0.052-2.002,1.137-3.737,1.187-5.688c0.045-1.749-0.232-3.532-0.568-5.243c-0.277-1.416-0.554-3.25-1.476-4.42
			c-0.609-0.773-0.819-2.103-1.13-3.045c-0.569-1.727-0.59-2.378,0.254-3.998c1.875-3.599,5.985-7.109,6-11.393
			c0.461,0.192,0.966,0.472,1.456,0.572c-0.329,0.02-0.118-1.877-0.074-2.268c0.146-1.305,1.4-2.166,2.082-3.222
			c1.356-2.104,2.033-4.535,2.474-6.976c0.408-2.264,0.326-5.059,1.246-7.181c0.605-1.398,2.355-0.213,2.562-0.544
			c0.122-0.195-0.841-3.079-0.855-3.612c-0.039-1.418,0.254-2.818,0.66-4.169c0.816-2.709,1.771-5.25,2.333-8.03
			c0.555-2.742,1.909-5.255,3.031-7.792c1.325-2.993,1.974-5.981,2.638-9.17c1.48-7.109,3.41-14.113,5.263-21.131
			c0.927-3.512,1.836-7.029,2.66-10.566c0.729-3.127,2.492-6.64,1.192-9.839c3.323-3.883,2.049-10.467,3.038-15.229
			c1.288-6.2,0.984-13.116-1.188-19.099c-1.319-3.636-4.148-6.84-8.333-6.421c-5.245,0.526-9.064,5.222-12.918,8.324
			c-9.396,7.563-13.99,19.554-19.443,29.979c-1.368,2.616-2.979,5.153-3.924,7.963c-0.901,2.678-1.319,5.481-1.736,8.267
			c-0.453,3.038-1.813,5.752-3.248,8.442c-0.782,1.468-1.622,2.905-2.384,4.384c-0.305,0.593-0.954,1.156,0.337,1.029
			c-2.272,1.013-1.979,5.07-2.804,7.13c-1.646,4.109-3.487,8.139-5.117,12.255c-1.591,4.015-2.585,8.097-3.814,12.216
			c-1.104,3.7-2.742,7.565-1.172,11.396c-1.398-1.171-2.843-1.666-3.7,0.238c-0.289,0.644-0.492,1.338-0.873,1.938
			c-0.717,1.131-3.586-0.175-4.718-0.434c-7.423-1.7-14.846-3.399-22.269-5.1c0.523-1.768,1.692-3.479-0.123-4.954
			c1.797-0.203,2.55-1.333,2.345-3.059c-0.249-2.096-0.196-4.006,0.058-6.129c0.734-6.126,2.262-12.36,0.696-18.49
			c-0.45-1.761,0.774-1.33,1.914-1.216c0.175,0.018-0.093-4.979,0.018-5.827c0.353-2.703,1.253-5.291,1.812-7.951
			c0.598-2.834,0.719-5.77,1.181-8.632c0.978-6.047,1.872-11.873,1.968-18.008c0.096-6.159,2.279-12.029,3.329-18.045
			c0.983-5.645,2.151-11.666,2.243-17.405c0.037-2.296-1.533-4.132-0.907-6.432c0.108-0.396,1.252-5.157,0.928-5.021
			c-0.33,0.133,0.152-1.362,0.3-2.096c0.348-1.729-0.888-2.184-1.6-3.625c-1.279-2.589-0.573-5.563-0.472-8.311
			c0.11-3.012-1.31-5.493-1.751-8.409c-0.251-1.661-0.399-3.339-0.79-4.977c-0.197-0.828-0.457-1.642-0.813-2.416
			c-0.222-0.479-1.201-1.378-0.553-1.636c-0.065-0.055-2.4-0.304-3.12-0.595c-1.766-0.716-3.477-1.116-5.028,0.308
			c-0.175-0.501-0.35-1.002-0.524-1.503c0.57,0.035,1.142,0.069,1.712,0.102c-0.492-1.181-0.728-0.547-1.677-0.058
			c-0.66,0.524-1.452,0.794-2.278,0.908c-1.909,0.264-3.611,0.033-5.365,1.021c-3.453,1.946-6.507,5.153-9.698,7.539
			c-2.802,2.095-5.169,4.312-6.014,7.807c-0.777,3.218-0.969,6.813-3.742,9.063c2.309,1.281,2.344,3.752,1.024,5.949
			c-1.72,2.861-2.804,5.526-3.422,8.876c-0.701,3.805-0.947,7.689-1.89,11.45c-1.086,4.331-2.33,8.525-3.091,12.94
			c-3.032,17.604-6.162,35.087-8.549,52.799c-1.196,8.882-2.225,17.753-3.276,26.65c-0.501,4.237-1.563,8.294-2.337,12.475
			c-0.824,4.457-1.088,8.99-1.695,13.477c-4.039,1.771-13.821,8.462-16.825,2.05c-1.425-3.042-1.525-6.757-2.331-9.995
			c-1.081-4.344-2.46-8.605-3.691-12.908c-0.455-1.592-0.621-1.878,0.316-3.207c0.484-0.686,0.698-1.7,1.427-2.178
			c1.78-1.167,2.084,0.285,2.822-2.222c0.672-2.284,1.113-4.634,1.905-6.883c0.807-2.293,2.311-4.217,3.106-6.515
			c1.592-4.604,1.061-9.53,1.23-14.307c0.085-2.388,0.357-4.79,1.144-7.059c0.781-2.25-0.183-5.089-0.576-7.312
			c0.411,0.326,0.821,0.652,1.232,0.978c1.768-4.278,2.854-9.988,3.521-14.284c-0.593-2.071-0.761-4.591-0.203-6.69
			c0.79-2.973,0.246-5.449,0.529-8.432c0.642-6.747,1.981-13.406,3.645-19.97c1.632-6.441,3.452-12.805,4.918-19.29
			c1.396-6.175,2.889-12.437,6.046-17.984c1.244-2.186,2.742-4.44,4.112-6.375c1.286-1.817,3.128-3.29,3.925-5.424
			c0.85-2.275-0.023-3.822,2.15-5.546c2.755-2.188,5.567-4.301,8.36-6.439c4.782-3.66,9.156-8.438,15.148-9.957
			c2.47-0.626,5.626-1.675,8.169-1.2c2.371,0.443,4.871,1.825,6.896-0.245c2.499,5.15,6.601-1.543,9.184,1.972
			c0.767,1.043,1.095,2.335,1.84,3.391c1.081,1.53,2.667,0.7,4.261,0.925c4.237,0.599,6.449,6.146,8.404,9.381
			c3.464,5.729,4.4,11.312,5.402,17.806c1.057,6.854,2.774,13.65,2.146,20.636c-0.622,6.899-4.114,12.901-4.929,19.69
			c-0.83,6.924-1.19,13.935-1.946,20.881c-0.387,3.546-0.827,7.084-1.31,10.619c-0.416,3.051-1.798,7.262-1.026,10.242
			c2.197-2.373,1.645-6.357,4.354-8.257c0.379,1.467,0.271,1.86-0.402,3.23c1.678,0.282,1.647-4.983,1.792-6.019
			c0.471-3.386,1.864-6.099,3.302-9.145c1.277-2.704,2.383-5.483,3.513-8.25c0.66-1.618,1.331-3.228,1.934-4.869
			c0.248-0.678,0.493-1.357,0.736-2.037c0.225-0.625,0.303-2.523,1.104-1.634c-0.21-1.627,2.173-3.647,3.072-4.98
			c1.195-1.772,1.599-3.74,2.421-5.678c1.646-3.878,4.369-7.13,7.149-10.243c2.131-2.385,3.811-5.342,6.407-7.269
			c1.47-1.09,3.036-1.293,4.648-2c1.202-0.526,2.311-2.125,3.775-1.757c0.728,0.183,1.306,0.787,1.754,1.347
			c0.666-0.551,0.335-1.023,0.497-1.86c0.263-1.36,1.214-2.708,2.568-3.155c1.523-0.502,3.386,0.732,4.997,0.738
			c1.966,0.007,3.851-0.608,5.651-1.342c3.833-1.563,7.502-0.564,10.948,1.416c1.511,0.868,3.327,1.723,4.65,2.856
			c1.356,1.162,1.938,2.959,3.015,4.337c1.526,0.15,3.248,2.399,4.242,3.77c1.362,1.879,3.26,3.34,4.535,5.239
			c1.343,2,1.638,4.422,1.473,6.776c-0.054,0.764-0.567,2.183-0.032,2.736c0.42,1.718,0.728,3.463,0.926,5.221
			c0.695,6.145,0.024,12.333-1.122,18.381c-0.575,3.036-1.267,6.048-1.96,9.059c-0.386,1.675-0.772,3.349-1.142,5.027
			c-0.408,1.861-0.608,2.227-1.972,3.43c-0.428-0.754-0.428-0.723,0.314-1.171c2.932,7.378-0.723,17.512-2.705,24.82
			c-1.101,4.058-2.654,7.973-3.893,11.989c-0.589,1.912-1.092,3.843-1.422,5.817c-0.206,1.228-1.202,4.98-0.458,6.038
			c0.522,0.742,1.797,1.183,2.66,1.219c1.307,0.054,1.512-1.521,2.412-2.21c2.098-1.601,4.74,0.21,7.035-0.451
			c1.485-0.427,2.051-0.851,3.488-2.018c1.487-1.208,3.026-2.352,4.611-3.427c3.407-2.313,7.025-4.31,10.789-5.979
			c7.512-3.331,14.916-5.303,22.973-2.675c3.645,1.189,7.058,2.993,10.334,4.961c2.896,1.74,6.267,2.333,9.142,4.061
			c7.688,4.622,2.926,13.83,0.517,20.079c-3.027,7.854-6.439,15.593-11.078,22.628c-7.637,11.583-11.148,25.369-19.428,36.611
			c-4.054,5.504-7.387,11.143-10.602,17.167c-3.305,6.195-7.851,11.53-10.568,18.037c-2.538,6.079-4.555,12.028-8.344,17.48
			c-1.935,2.785-3.252,5.869-5.079,8.71c-1.927,2.995-4.253,5.709-6.328,8.6c-4.172,5.812-8.009,11.876-11.954,17.844
			c-2.097,3.172-4.167,6.363-6.338,9.486c-0.772,1.112-0.865,1.083-2.099,1.09c-1.248,0.007-1.403,1.303-1.902,2.213
			c0.253-0.114,1.045-0.583,1.269-0.468c0.2,0.459,0.603,1.379,0.098,1.814c-0.649,0.561-1.718,0.079-2.451,0.456
			c-4.036,7.112-8.611,14.218-13.831,20.734c-2.538,3.168-4.994,6.404-7.54,9.564c-2.663,3.307-5.752,6.44-7.702,10.252
			c-1.698,3.32-2.76,6.925-4.452,10.249c-2.06,4.046-4.954,7.763-7.494,11.517c-5.102,7.538-10.28,15.024-15.484,22.492
			c-4.367,6.267-9.61,11.655-11.927,19.089c-1.04,3.337-1.229,7.297-2.742,10.434c-1.672,3.465-4.272,5.101-3.943,9.325
			c0.11,1.426,0.391,2.872,0.227,4.305c-0.187,1.637-1.284,2.948-1.572,4.583c-0.326,1.849-0.298,3.758-1.21,5.456
			c-0.992,1.847-1.438,3.973-1.452,6.06c-0.029,4.094,1.872,7.884,1.994,12.013c0.131,4.43-0.594,8.824-0.741,13.243
			c-0.451,13.568,0.021,27.262,0.016,40.843c-0.002,7.016-0.08,14.024,0.604,21.015c0.27,2.755,1.514,6.849,0.836,9.539
			c-0.246,0.978-1.567,1.521-2.49,1.501c-0.753-0.016-0.09-1.005-0.095-1.368c-1.627,1.208-2.453,1.721-4.507,2.162
			c-2.483,0.534-4.968,1.066-7.457,1.573c-4.93,1.004-9.88,1.873-14.867,2.539c-4.898,0.653-9.814,1.178-14.71,1.853
			c-4.255,0.587-8.841,0.71-12.81,2.505c-1.724,0.779-3.422,1.677-5.28,2.097c-2.005,0.454-3.984,0.011-6.004,0.186
			c-4.1,0.354-7.91,2.179-12.016,2.521c-2.05,0.171-4.097-0.134-6.154,0.006c-2.238,0.152-4.46,0.473-6.69,0.701
			c-1.244,0.127-2.588,0.536-3.84,0.412c-0.933-0.092-2.208-1.903-2.433-1.872c0.834,0.466-0.604,1.74-1.216,1.823
			c-1.288,0.175-2.643-0.613-3.797-1.059c0.527,0.426,1.054,0.853,1.581,1.278c-1.388-0.253-2.768,0.496-4.028,0.983
			c-0.859,0.332-1.77,0.611-2.703,0.521c-1.026-0.099-1.652-0.941-2.584-1.095c-1.836-0.3-3.133,1.29-4.774,1.663
			c-1.608,0.365-1.403-2.012-2.448-2.66c-0.329,2.72-1.857,3.656-4.441,3.27c-1.131-0.17-2.282-0.456-3.433-0.349
			c-1.062,0.1-1.609,1.014-2.533,1.16c-1.098,0.174-2.226,0.077-3.33,0.24c-1.432,0.213-2.806,1.527-4.115,1.568
			c-2.722,0.087-6.342-2.418-8.711-3.606c0.907,4.771-7.248-0.482-5.867,4.863c-0.982-0.06-1.002-0.382-1.482-1.255
			c-1.531,3.521-6.34-3.93-7.131,1.998c-0.285,2.155-1.571-0.52-1.741-0.896c-0.333-0.736-0.918-1.944-1.921-1.788
			c-1.257,0.196-1.692,2.217-2.62,2.374c-0.604,0.103-1.877-1.411-2.429-1.68c-1.513-0.735-3.427-0.154-5.02-0.036
			c-2.119,0.156-4.243,0.234-6.367,0.271c-2.13,0.036-4.261,0.029-6.392,0.018c-1.243-0.008-5.209,0.666-5.754-0.6
			c-1.428-3.312-1.323-7.426-1.46-10.962c-0.171-4.391-1.148-8.656-1.354-13.014c-0.19-4.018,0.434-8.013,0.448-12.026
			c0.015-4.367-1.315-8.491-1.945-12.779c-1.271-8.658,1.002-16.967,1.216-25.618c0.221-8.911,0.673-18.023-0.431-26.88
			c-1.144-9.173-1.46-18.146-1.597-27.382c-0.02-1.311-0.813-2.408-1.261-3.593c-0.63-1.667-0.023-3.11,0.303-4.772
			c0.809-4.125,0.558-8.313,0.178-12.472c-0.637-6.978-5.521-13.688-11.062-17.874c-1.345-1.016-3.005-1.609-4.269-2.71
			c-1.229-1.071-2.123-2.477-3.022-3.819c-1.929-2.881-5.272-4.092-8.024-5.983c-3.126-2.148-6.137-4.898-9.06-7.335
			c-1.556-1.297-3.003-2.725-4.518-4.068c-0.785-0.696-1.573-1.388-2.36-2.081c-0.631-0.556-2.216-1.267-1.077-1.974
			c-0.468,1.362-3.083-1.409-3.843-1.999c-1.688-1.307-3.376-2.611-5.063-3.92c-3.614-2.804-7.252-5.591-10.761-8.527
			c-3.065-2.565-6.003-5.276-9.062-7.849c-3.188-2.681-6.714-4.842-9.97-7.416c-11.862-9.375-13.578-23.744-14.977-37.798
			c-0.92-9.256-1.753-18.521-2.348-27.804c-0.274-4.288-0.342-8.464-0.148-12.754c0.211-4.659-0.573-9.161-1.246-13.755
			c-1.319-9.003-2.053-17.825-2.185-26.918c-0.063-4.349-0.329-8.696-0.835-13.016c-0.503-4.296,0.285-8.652-0.49-12.928
			c-0.318-1.754-1.113-3.432-1.08-5.242c0.019-1.017,0.316-2.025,1.011-2.792c0.609-0.672,2.211-1.086,1.804-2.247
			c-0.243-0.694-0.888-1.251-0.975-2.003c-0.205-1.77-0.478-3.53-0.746-5.292c-0.532-3.497-1.059-7.021-0.982-10.568
			c0.067-3.101-0.334-6.183-0.658-9.26c-0.367-3.484-0.202-6.781-0.132-10.259c0.065-3.28-1.298-6.399-2.042-9.541
			c-0.702-2.963-0.875-6.206-1.582-9.052c0.688,0.339,1.376,0.678,2.064,1.017c0.529-1.127-0.578-1.469-1.104-2.203
			c-0.593-0.827-0.022-3.744,0.094-4.733c0.498-4.236,2.595-8.09,3.058-12.415c0.325-3.041-1.762-16.547,4.668-13.664
			c1.915,0.858,3.338,1.926,5.467,2.171c4.301,0.497,8.501,1.625,12.577,3.063c7.692,2.714,15.1,6.282,22.614,9.444
			c7.043,2.964,14.097,6.27,19.645,11.657c2.765,2.685,5.215,5.667,7.845,8.479c2.835,3.032,6.236,5.371,9.121,8.328
			c2.437,2.498,4.572,5.446,5.746,8.757c1.254,3.541,3.095,6.725,4.532,10.18c1.447,3.479,1.425,7.125,1.947,10.799
			c0.274,1.925,0.661,3.839,1.266,5.69c0.652,1.997,1.951,3.815,2.261,5.905c0.583,3.936,0.031,8.011,0.543,12.003
			c0.576,4.484,1.371,9.556,1.153,13.928c0.762,0.44,1.309,1.11,1.283,2.029c-0.012,0.425-0.038,1.136-0.448,1.357
			c0.384,0.646,0.817,0.987,0.57,1.789c-0.912,2.959,0.553,6.581,0.482,9.577c0.991,0.444,1.943,1.132,1.014,2.249
			c-0.165-0.104-0.289-0.246-0.371-0.428c0.799,0.773,0.423,2.115-0.198,2.955C165.819,320.12,164.35,320.79,164.648,320.812
			C165.759,321.976,164.556,320.805,164.648,320.812z M358.165,62.262C356.429,60.896,356.195,63.669,358.165,62.262
			C357.773,61.954,357.7,62.594,358.165,62.262z M441.264,368.501c-0.814-0.482-0.836-0.456-1.672,0.003
			C440.19,369.284,440.374,368.928,441.264,368.501C440.854,368.258,440.671,368.786,441.264,368.501z M175.322,650.693
			C174.969,649.84,174.506,651.064,175.322,650.693C175.272,650.574,175.195,650.75,175.322,650.693z M174.404,643.967
			c-0.107-0.331-0.287-0.372-0.541-0.125C173.952,644.197,174.132,644.239,174.404,643.967
			C174.335,643.869,174.283,644.041,174.404,643.967z M267.519,651.483C267.338,651.157,267.282,651.755,267.519,651.483
			C267.493,651.436,267.484,651.523,267.519,651.483z M402.919,152.884C402.932,152.689,402.932,152.688,402.919,152.884
			L402.919,152.884z M440.362,132.024c-0.083-0.203-0.174-0.209-0.273-0.017C440.164,132.21,440.255,132.216,440.362,132.024
			C440.318,131.972,440.312,132.071,440.362,132.024z M344.024,595.52c-0.098-0.208-0.194-0.21-0.29-0.005
			C343.824,595.723,343.921,595.725,344.024,595.52C343.975,595.467,343.974,595.571,344.024,595.52z M392.818,230.23
			C392.833,230.07,392.834,230.067,392.818,230.23L392.818,230.23z M520.903,205.574
			C520.885,205.789,520.885,205.788,520.903,205.574L520.903,205.574z"/>
		<g>
			<path fill-rule="evenodd" clip-rule="evenodd" fill="#802E02" d="M357.447,237.767
				C357.478,237.76,357.495,237.742,357.447,237.767C357.457,237.765,357.447,237.767,357.447,237.767z"/>
			<path fill-rule="evenodd" clip-rule="evenodd" fill="#802E02" d="M250.08,208.91c0.411,0.501,0.89,1.054,1.33,1.57
				C250.967,209.957,250.523,209.434,250.08,208.91z"/>
			<path fill-rule="evenodd" clip-rule="evenodd" fill="#802E02" d="M425.04,298.57c-0.78-1.582,0.029-3.729,0.532-5.27
				c0.422-1.293,0.404-2.458,0.271-3.812c-0.22-2.247-0.409-6.907-2.718-8.083c-1.502-0.765-3.175-1.395-4.344-2.662
				c-1.41-1.528-1.34-3.766-2.268-5.566c-1.064-2.065-2.709-3.961-4.03-6.117c-0.744-1.214-1.488-2.428-2.231-3.642
				c-0.759-1.237-1.067-2.631-2.52-2.625c-2.42,0.011-3.069-1.919-4.075-3.657c-0.983-1.697-2.418-3.049-4-4.185
				c-3.522-2.529-7.03-4.316-9.829-7.754c-0.946-1.163-1.458-2.209-2.959-2.552c-1.413-0.323-2.826-0.646-4.239-0.97
				c-2.828-0.647-5.655-1.293-8.482-1.94c-2.829-0.647-5.657-1.295-8.485-1.944c-1.414-0.324-2.829-0.649-4.243-0.974
				c-1.313,0.311-2.626,0.629-3.939,0.94c0.43,1.225,0.199,0.804,0.369,1.02c-1.489,0.45-2.978,0.899-4.47,1.34
				c1.489-0.44,2.977-0.889,4.46-1.35c-3.633-1.153-7.408-0.692-10.933,0.605c-3.356,1.236-6.271,3.303-9.81,3.978
				c-1.312,0.25-2.689,0.562-3.685,1.518c-0.691,0.665-0.905,1.204-1.723,1.789c-0.054,0.428-0.149,1.325-0.665,1.54
				c-0.706,0.294-1.512-0.722-2.155-0.88c-0.89-0.219-4.438,1.799-5.451,2.155c-4.021,1.413-8.251,2.585-12.134,4.341
				c-3.533,1.598-7.438,4.05-11.389,4.327c-2.324,0.163-3.902-1.143-4.717-3.246c-1.391-3.586-1.613-7.718-2.614-11.441
				c-1.074-3.993-2.344-7.929-3.459-11.91c-0.392-1.398-1.335-2.146-2.322-3.216c-2.714-2.947-5.429-5.894-8.144-8.84
				c-1.088-1.181-2.967-0.754-4.442-1.611c-2.409-1.402-4.111-3.866-6.734-4.921c-2.467-0.993-4.216-2.542-6.444-3.939
				c-1.063-0.667-2.249-1.14-3.521-1.116c-0.734,0.014-1.457,0.183-2.139,0.449c-0.005,0.002-1.25-1.594-1.521-1.713
				c-1.192-0.524-2.545-0.205-2.589,1.273c-0.027,0.889,1.206-0.294,1.581-0.19c0.849,0.244-2.555,1.146-2.75,1.19
				c0.443,0.523,0.887,1.046,1.33,1.57c-0.368-0.431-0.847-1.31-1.34-1.57c-2.077-0.124-3.882-0.569-5.926-0.906
				c-4.121-0.678-8.668-0.678-12.828-0.388c-1.889,0.132-3.792,0.443-5.555,1.156c-1.203,0.487-1.948,1.182-3.279,0.952
				c-0.73-0.126-1.734-0.516-2.434-0.09c-0.401,0.245-0.556,0.73-0.624,1.165c-0.188,1.214-1.542,1.328-2.655,1.797
				c-3.446,1.452-7.094,2.795-10.87,1.856c-1.717-0.427-3.45,1.35-5.063,2.153c-1.966,0.979-4.021,1.766-6.098,2.476
				c-2.428,0.83-9.395,1.837-10.146,4.308c-0.31,1.02-0.623,2.039-0.931,3.06c-0.993-0.21-1.987-0.419-2.98-0.63
				c-1.148,0.406-2.791,3.186-3.581,4.141c-5.262,6.36-7.647,13.416-8.86,21.534c-0.307,2.054-0.423,4.143-0.183,6.211
				c0.051,0.351,0.102,0.703,0.153,1.054c-0.255,0.153-0.479,0.343-0.67,0.57c0.289,0.735,0.494,1.501,0.609,2.282
				c0.484,3.289-0.665,6.5-1.625,9.592c-0.916,2.947-1.707,6.026-1.076,9.119c0.341,1.674,0.914,3.135,0.96,4.875
				c0.059,2.175-0.175,4.352,0.018,6.524c0.149,1.686,0.569,3.207,0.429,4.92c-0.128,1.562-0.431,3.128-0.292,4.701
				c0.138,1.551,1.717,3.118,1.412,4.415c-0.429,1.823,1.348,5.14,1.901,6.907c2.735,8.731,5.723,17.317,8.877,25.905
				c0.381,1.038,0.763,2.076,1.144,3.113c0.523,1.422,0.596,0.914,1.792,1.443c1.154,0.511,1.958,1.465,2.513,2.574
				c1.588,3.171,2.781,6.67,4.14,9.948c2.791,6.73,4.958,13.769,9.528,19.582c1.05,1.336,2.21,2.587,3.478,3.721
				c1.008,0.902,3.447,2.042,3.611,3.334c0.206,1.627,1.367,3.408,2.005,4.948c0.917,2.211,1.811,4.432,2.7,6.655
				c3.166,7.913,6.274,15.87,10.147,23.472c3.812,7.482,8.185,14.746,12.417,21.998c4.246,7.275,8.736,14.435,13.967,21.05
				c2.445,3.093,4.966,6.103,7.01,9.487c1.208,2.002,2.71,7.451,5.758,7.302c1.608-0.079,2.924-1.628,4.013-2.643
				c0.771-0.717,1.469-1.059,1.749-2.061c0.335-1.198,1.23-2.004,2.327-2.516c1.992-0.928,3.794-1.254,5.447-2.819
				c1.515-1.435,3.116-3.369,5.391-3.389c1.538-0.014,2.254,1.17,3.54,0.178c1.644-1.268,3.288-2.533,4.93-3.803
				c1.146-0.887,1.711,0.218,2.826-0.648c1.041-0.809,1.601-1.394,2.836-1.935c3.13-1.37,5.958-4.133,8.831-6.002
				c3.236-2.105,6.47-4.218,9.75-6.256c3.084-1.914,6.69-3.196,9.585-5.357c3.264-2.437,6.527-4.872,9.79-7.309
				c3.264-2.435,6.526-4.869,9.791-7.303c1.353-1.01,2.761-2.455,4.399-2.907c1.669-0.461,3.45-0.722,4.98-1.578
				c2.882-1.61,5.128-4.548,7.528-6.764c2.212-2.042,4.856-3.389,7.131-5.327c3.898-3.319,7.319-7.725,12.921-7.709
				c-0.41-0.35-0.82-0.7-1.23-1.05c0.297-0.29,0.593-0.58,0.89-0.87c0.24,0.523,0.48,1.046,0.721,1.57
				c1.516-3.206,3.95-6.039,7.79-5.89c-0.125-0.281-0.245-0.565-0.36-0.85c1.911-0.721,2.119-3.743,4.71-2.83
				c-0.205-1.901,0.798-3.348,2.183-4.527c1.662-1.416,3.035-2.803,4.477-4.452c3.396-3.884,7.17-7.504,9.868-11.941
				c2.99-4.917,4.698-10.756,6.822-16.082c1.169-2.931,2.368-5.85,3.66-8.729c0.601-1.32-0.168-3.284,2.08-3.08
				c-0.76-1.599,0.02-3.084,0.769-4.5c1.056-1.995,1.818-4.173,2.48-6.326c1.372-4.463,2.157-9.074,3.009-13.657
				c0.317-1.709,0.356-3.524,1.513-4.856c0.315-0.96,0.632-1.919,0.95-2.879c0.402-1.218,1.376-2.486,0.281-3.274
				C424.604,304.857,426.347,301.191,425.04,298.57C424.29,297.05,426.44,301.38,425.04,298.57z M171.67,240.04
				c-0.733-0.294-0.231-1.497,0.88-0.32C172.28,239.898,171.987,240.004,171.67,240.04C171.47,239.96,171.84,240.11,171.67,240.04z
				 M179.85,226.8c0.277,0.219,0.267,0.418-0.03,0.6C179.557,227.187,179.566,226.987,179.85,226.8
				C179.93,226.91,179.77,226.9,179.85,226.8z M179.58,229.3c-0.23,0-0.294-0.982,0.63-0.27C180,229.12,179.79,229.21,179.58,229.3
				C179.49,229.3,179.75,229.28,179.58,229.3z M180.59,232.68C180.48,232.456,180.603,232.706,180.59,232.68L180.59,232.68z
				 M341.94,397.11c0.357,0.813-0.247,1.642-1.12,1.38c-1.241-0.384-0.618-0.949-2.042-0.104c-2.651,1.572-5.332,3.102-7.87,4.856
				c-1.217,0.841-2.521,2.443-4.071,2.621c-2.022,0.232-3.692,0.268-5.534,1.393c-1.771,1.081-3.21,2.603-4.725,4.001
				c-1.627,1.502-3.535,2.35-5.25,3.683c-1.62,1.26-3.662,2.97-4.914,4.588c-1.12,1.447-2.085,2.297-3.494,0.483
				c-0.374,2.788-2.772,1.934-4.858,2.431c-3.745,0.892-6.908,3.456-9.912,5.729c-3.12,2.354-6.136,4.843-9.122,7.364
				c-2.41,2.036-6.954,4.574-7.708,7.655c1.384-0.689,2.105-0.244,3.55,0.22c-0.5,1.198-0.653,3.298-2.036,3.887
				c-0.696,0.297-0.44-1.166-0.644-1.456c-2.333-3.405-4.407-0.824-7.176,0.162c-1.53,0.545-3.326,1.752-2.684-0.942
				c0.256-1.025-2.099-1.33-2.741-1.754c-1.126-0.744-1.915-1.86-2.469-3.074c-0.912-1.997-1.173-4.214-2.046-6.221
				c-1.654-3.802-4-7.41-6.085-10.986c-4.244-7.278-8.612-14.524-11.872-22.313c-3.224-7.703-8.075-14.337-12.289-21.494
				c-4.3-7.303-8.286-14.614-12.005-22.219c-1.461-2.987-3.858-5.425-5.193-8.478c-1.207-2.76-1.256-5.462-2.843-8.157
				c-1.267-2.151-2.551-4.479-1.81-7.05c0.382-1.323,1.67-2.48,1.263-3.932c-0.446-1.591-1.871-2.691-2.681-4.081
				c-1.916-3.286-3.031-6.943-4.319-10.5c-1.429-3.944-3.622-7.327-5.462-11.064c-3.681-7.47-5.221-15.602-5.146-23.897
				c0.072-8.05,0.478-17.14,4.252-24.422c3.378-6.515,9.789-11.629,16.043-15.239c6.925-3.997,14.407-6.295,22.341-7.142
				c3.851-0.411,7.688-0.919,11.519-0.127c1.718,0.355,3.401,0.854,5.11,1.242c1.921,0.437,3.845,0.351,5.762,0.687
				c2.848,0.498,5.01,2.412,7.486,3.736c1.263,0.676,2.739,0.854,3.954,1.589c1.739,1.051,3.048,2.795,4.127,4.479
				c4.708,7.346,9.081,15.385,12.392,23.46c1.556,3.795,2.776,7.714,4.036,11.613c0.84,2.601,2.295,7.479,5.954,6.744
				c3.317-0.667,5.624-3.432,9.067-3.979c4.102-0.652,7.796-1.374,11.744-2.771c8.042-2.846,15.745-6.547,23.351-10.39
				c3.559-1.798,7.355-3.196,11.28-3.933c3.226-0.605,5.769-2.808,8.947-3.369c2.838-0.501,6.391-0.802,9.281-0.753
				c4.209,0.071,8.028,2.866,11.631,4.767c3.706,1.956,7.408,3.918,11.091,5.918c2.553,1.394,3.633,5.988,4.738,8.473
				c1.531,3.444,2.768,7.046,4.737,10.278c2.155,3.536,3.684,6.44,4.063,10.653c0.306,3.394,0.154,6.852,0.941,10.189
				c0.998,4.236,2.012,7.827,1.266,12.241c-0.733,4.344-2.331,8.752-4.87,12.355c-2.636,3.742-4.167,8.665-6.065,12.84
				c-1.435,3.154-2.127,6.406-3.247,9.633c-0.372,1.073-0.978,2.202-2.053,2.706c-1.411,0.662-2.673-0.279-4.07-0.179
				c1.229,1.659-0.904,1.459-1.391,2.562c-0.324,0.735,0.792,1.011,1.046,1.521c0.113,0.228-0.809,0.751-0.969,1.054
				c-0.412,0.775-0.555,2.244-1.366,2.726c-0.545,0.324-1.097-0.425-1.355-0.787c-0.928-1.299-0.62-1.415-2.155-0.957
				c2.66,2.827,0.457,4.823-1.249,7.314c-0.288,0.421-0.546,0.872-0.694,1.363c-0.252,0.831-1.347,0.251-2.203,0.432
				c-1.604,0.338-2.668,1.647-3.606,2.888c-2.286,3.021-5.465,5.708-8.533,7.914c-1.729,1.243-4.259,1.806-5.746,3.252
				c-1.603,1.559-2.724,3.16-4.538,4.545c0.196-1.012,0.396-3.175-1.053-1.633c-0.863,0.918-1.049,3.161-2.151,3.728
				c-1.066,0.549-2.115-1.331-3.108-1.563c-0.523-0.123-1.153-0.102-1.418,0.487C340.713,396.513,341.781,396.736,341.94,397.11
				C342.09,397.45,341.71,396.57,341.94,397.11z"/>
		</g>
		<path fill-rule="evenodd" clip-rule="evenodd" fill="#103D6D" d="M249.21,177.27c0.12,0.86,0.05,1.23,0.44,1.37
			C249.51,178.19,249.36,177.73,249.21,177.27z M204.45,214.47c0.16-0.09,0.31-0.2,0.46-0.31c0.01-0.2,0.02-0.39,0.02-0.59
			C205.18,204.62,199.37,217.66,204.45,214.47z M179.19,144.57c0.02,0.04,0.05,0.09,0.08,0.13c0-0.09,0-0.2-0.01-0.31
			C179.25,144.45,179.22,144.51,179.19,144.57z"/>
		<path fill-rule="evenodd" clip-rule="evenodd" fill="#103D6D" d="M277.32,206.98c-0.26-4.65-1.56-9.12-2.35-13.7
			c-0.72-4.14-1.26-8.31-1.88-12.47c-0.67-4.51-1.48-9-2.37-13.47c-0.82-4.09-2.18-8.04-3.07-12.1c-0.89-4.1-0.7-8.35-1.47-12.47
			c-0.76-4.05-1.89-8.06-2.87-12.07c-2.07-8.4-4.05-16.87-4.82-25.51c-0.41-4.54-0.23-8.96-1.63-13.35
			c-1.25-3.9-3.04-7.63-4.85-11.3c-1.56-3.16-2.94-7.79-5.74-9.91c-2.2-1.68-3.78-4.1-6.2-5.51c-1.41-0.82-3.1-0.82-4.35-1.9
			c-1.23-1.06-2.06-1.83-3.69-2.22c-4.07-0.97-8.29-1.01-12.45-0.75c-4.28,0.26-8.65,0.51-12.92,1c-2.58,0.3-5.43,1.51-6.18,4.23
			c-3.94,2.48-8.43,5.39-11.67,8.95c-1.74,1.91-2.85,4.14-3.3,6.68c-0.34,1.99-1.16,3.48-3.44,3.31c1.06,2.53-0.88,4.77-1,7.26
			c1.17,1.21-1.34,4.2-1.76,5.79c-0.66,2.46-0.82,5.02-1.39,7.5c-0.62,2.72-0.21,5.03,0.04,7.76c0.13,1.46,0.07,2.95-0.52,4.32
			c-0.51,1.18-0.27,1.23,0.15,2.56c0.5-0.42,0.23-1.97,1.14-0.67c0.46,0.66-0.16,2.31-0.77,2.71c-2.46,1.6-1.39,5.33-0.57,7.58
			c0.52,1.44,1.13,2.88,1.3,4.42c0.19,1.65-0.5,2.7-0.8,4.22c-0.41,2.04,0.18,4.94,1.3,6.7c0.03-0.06,0.06-0.12,0.07-0.18
			c-0.02-0.49-0.07-1.14-0.11-1.26c0.38,0.36,0.3,0.8,0.11,1.26c0.01,0.11,0.01,0.22,0.01,0.31c-0.03-0.04-0.06-0.09-0.08-0.13
			c-0.26,0.62-0.62,1.28-0.19,1.83c0.88,1.14,1.22,1.16,1.3,2.75c0.22,4.45,0.43,8.9,0.64,13.34c0.23,4.82,0.45,9.64,0.68,14.46
			c0.18,4.04-0.27,8.81,0.69,12.74c-0.87-0.48-0.13,2.3-0.04,2.96c0.17,1.42,0.36,2.84,0.46,4.26c0.21,2.84-0.02,5.7,0.07,8.55
			c0.19,5.69,0.99,11.34,2.1,16.91c6.56-2.51,13.7-3.83,19.55-7.9c-5.08,3.19,0.73-9.85,0.48-0.9c0.49-11.09-1.1-22.44-2.23-33.45
			c-0.54-5.29-1.68-10.88-1.09-16.22c0.17-1.54,0.36-3.07-0.04-4.6c-0.5-1.89-2.14-2.8-2.07-4.87c0.06-1.91,0.63-3.8,0.44-5.71
			c-0.2-2.09-0.34-4.19-0.42-6.29c-0.15-4.2-0.03-8.42,0.52-12.58c1.16-8.77,1.14-17.64,1.75-26.45c0.31-4.57,0.8-9.14,1.71-13.63
			c0.66-3.24,1.19-6.36,4.13-8.3c3.18-2.1,7.07-1.96,10.72-2.17c3.67-0.21,7.38,0.1,10.51,2.22c5.87,3.97,7.84,12.22,9.81,18.56
			c1.31,4.23,1.97,8.14,2.53,12.57c0.54,4.24,1.09,8.47,1.75,12.69c1.41,8.94,3.93,17.73,4.95,26.72c0.53,4.67,0.67,9.38,0.68,14.08
			c0.02,4.28,1.24,8.34,1.84,12.56c-0.37,0.01-0.62,0-0.77-0.06c1.47,4.62,2.78,8.86,3.22,13.83c0.22,2.47,0.37,4.95,0.52,7.43
			c0.09,1.41,0.18,2.83,0.28,4.24c0.09,1.42,0.22,1.08,1.44,1.28c-0.98,0.55-0.75,0.56-0.67,1.57c0.07,0.1,0.76,1.42,0.92,1.36
			c1.29-0.5,2.68-0.6,4-0.15c2.22,0.76,3.83,2.62,5.81,3.79c2.29,1.36,4.36,2.12,6.43,3.93c1.86,1.61,3.88,3.07,6.47,2.95
			C277.42,214.94,277.55,210.95,277.32,206.98z M179.97,98.01c-0.01-0.03-0.01-0.06-0.01-0.09c-0.11-0.55-0.19-0.63,0.37-0.85
			C180.57,97.46,180.45,97.77,179.97,98.01z"/>
		<path fill-rule="evenodd" clip-rule="evenodd" fill="#103D6D" d="M181.111,91.633c-0.438-0.057-0.876-0.113-1.314-0.169
			C180.704,90.058,180.397,90.909,181.111,91.633z"/>
		<path fill-rule="evenodd" clip-rule="evenodd" fill="#103D6D" d="M498.011,206.221c-0.445,0.541-0.425,0.56-1.066,0.276
			C497.467,205.938,497.387,206.048,498.011,206.221C497.817,206.456,497.736,206.145,498.011,206.221z"/>
		<path fill-rule="evenodd" clip-rule="evenodd" fill="#103D6D" d="M447.351,392.985c0.178-0.267,0.355-0.533,0.533-0.799
			C448.339,392.777,448.254,392.973,447.351,392.985z"/>
		<path fill-rule="evenodd" clip-rule="evenodd" fill="#103D6D" d="M60.479,221.562c-0.13-0.059-0.259-0.118-0.389-0.177
			C60.225,221.491,60.357,221.517,60.479,221.562z"/>
		<path fill-rule="evenodd" clip-rule="evenodd" fill="#103D6D" d="M300.808,182.895c0.137-0.144,0.272-0.287,0.409-0.431
			C301.463,182.896,301,182.761,300.808,182.895z"/>
		<path fill-rule="evenodd" clip-rule="evenodd" fill="#103D6D" d="M172.737,579.206c-0.064,0.122-0.129,0.244-0.193,0.366
			c-0.346-0.518-0.343-0.386-0.027-0.71C172.59,578.976,172.664,579.091,172.737,579.206
			C172.672,579.332,172.665,579.088,172.737,579.206z"/>
		<path fill-rule="evenodd" clip-rule="evenodd" fill="#AD4202" d="M180.652,225.843
			C180.791,225.441,180.668,225.659,180.652,225.843C180.679,225.764,180.652,225.843,180.652,225.843z"/>
		<path fill-rule="evenodd" clip-rule="evenodd" fill="#AD4202" d="M172.681,234.262
			C172.905,234.32,172.905,234.321,172.681,234.262L172.681,234.262z"/>
		<path fill-rule="evenodd" clip-rule="evenodd" fill="#103D6D" d="M445.064,395.33c0.094,0.071,0.187,0.142,0.28,0.212
			C445.006,395.723,445.172,395.475,445.064,395.33z"/>
		<path fill-rule="evenodd" clip-rule="evenodd" fill="#103D6D" d="M15.123,127.33C14.895,127.796,14.725,126.964,15.123,127.33
			C15.101,127.375,15.069,127.28,15.123,127.33z"/>
		<path fill-rule="evenodd" clip-rule="evenodd" fill="#103D6D" d="M479.071,131.22c0.146-0.082,0.29-0.163,0.436-0.245
			C479.483,131.567,479.338,131.648,479.071,131.22C479.216,131.139,479.162,131.309,479.071,131.22z"/>
		<path fill-rule="evenodd" clip-rule="evenodd" fill="#103D6D" d="M266.311,652.369c-0.166,0.167-0.333,0.334-0.499,0.501
			C266.057,652.87,266.285,652.398,266.311,652.369z"/>
		<path fill-rule="evenodd" clip-rule="evenodd" fill="#103D6D" d="M324.229,91.334C324.311,90.782,324.211,91.518,324.229,91.334
			C324.238,91.275,324.229,91.334,324.229,91.334z"/>
		<path fill-rule="evenodd" clip-rule="evenodd" fill="#103D6D" d="M177.043,117.898
			C176.778,117.916,176.98,117.902,177.043,117.898L177.043,117.898z"/>
		<path fill-rule="evenodd" clip-rule="evenodd" fill="#103D6D" d="M478.969,218.181c0.179-0.034,0.357-0.067,0.536-0.101
			C479.408,218.625,479.229,218.659,478.969,218.181C479.147,218.147,479.077,218.292,478.969,218.181z"/>
		<path fill-rule="evenodd" clip-rule="evenodd" fill="#103D6D" d="M247.419,71.382C247.673,71.396,247.444,71.386,247.419,71.382
			C247.456,71.384,247.419,71.382,247.419,71.382z"/>
		<path fill-rule="evenodd" clip-rule="evenodd" fill="#103D6D" d="M492.896,318.975
			C492.863,319.503,492.486,318.745,492.896,318.975C492.893,319.022,492.848,318.948,492.896,318.975z"/>
		<path fill-rule="evenodd" clip-rule="evenodd" fill="#DFB883" d="M422.824,517.078c0.497,0.803,0.652,0.807,0.054,1.513
			C422.367,517.908,422.474,517.874,422.824,517.078C423.119,517.554,422.613,517.556,422.824,517.078z"/>
		<path fill-rule="evenodd" clip-rule="evenodd" fill="#DFB883" d="M426.329,507.934c0.216,0.293,0.432,0.585,0.647,0.877
			C426.142,509.307,426.139,508.62,426.329,507.934C426.736,508.487,426.234,508.275,426.329,507.934z"/>
		<path fill-rule="evenodd" clip-rule="evenodd" fill="#802E02" d="M593.887,546.913c0.199,0.026,0.398,0.052,0.598,0.078
			C594.323,547.437,594.414,547.085,593.887,546.913z"/>
		<path fill-rule="evenodd" clip-rule="evenodd" fill="#AD4202" d="M20.394,478.756c-0.16,0.128-0.24,0.091-0.24-0.11
			C20.308,478.514,20.388,478.55,20.394,478.756C20.333,478.779,20.372,478.695,20.394,478.756z"/>
		<path fill-rule="evenodd" clip-rule="evenodd" fill="#AD4202" d="M65.893,513.263C65.688,513.109,65.9,513.269,65.893,513.263
			L65.893,513.263z"/>
		<path fill-rule="evenodd" clip-rule="evenodd" fill="#DFB883" d="M494.406,415.104c0.177,0.268,0.353,0.535,0.529,0.803
			C494.353,416.027,494.222,415.666,494.406,415.104z"/>
		<path fill-rule="evenodd" clip-rule="evenodd" fill="#AD4202" d="M473.638,559.346l0.01-0.01L473.638,559.346z"/>
		<path fill-rule="evenodd" clip-rule="evenodd" fill="#DFB883" d="M264.4,629.3C264.446,629.436,264.508,629.197,264.4,629.3
			C264.41,629.331,264.41,629.291,264.4,629.3z M287.03,459.22c0.032,0.222,0.055,0.357,0.27,0.2
			C287.422,459.157,287.332,459.09,287.03,459.22C287.04,459.291,287.13,459.21,287.03,459.22z M346.93,508.18
			C346.898,508.211,346.963,508.224,346.93,508.18C346.92,508.19,346.93,508.18,346.93,508.18z M470.51,248.74
			C470.237,249.079,470.922,248.906,470.51,248.74C470.47,248.79,470.56,248.76,470.51,248.74z M255.52,474.26
			c0.167,0.764,0.53,0.851,1.09,0.26C256.246,474.438,255.882,474.351,255.52,474.26C255.65,474.49,255.76,474.31,255.52,474.26z"/>
		<path fill-rule="evenodd" clip-rule="evenodd" fill="#DFB883" d="M522.28,228.49c-3.484-3.902-9.157-5.291-14.195-4.407
			c-5.099,0.895-9.473,3.931-14.26,5.72c-2.07,0.774-4.165,1.688-5.455,3.58c-0.25,0.366-0.498,1.679-0.78,1.877
			c-1.462,1.08-2.93,2.152-4.399,3.222c-2.647,1.928-5.3,3.847-7.938,5.788c-1.068,0.786-2.321,1.517-3.229,2.491
			c-0.258,0.276-1.628,2.178-1.434,2.178c-0.832,0-1.255-0.326-1.934,1.063c-0.379,0.775-1.916-1.098-2.419,0.288
			c-0.489,1.348-0.102,1.809-1.308,2.853c-1.948,1.686-3.816,3.463-5.605,5.317c-7.108,7.365-12.899,15.873-18.083,24.667
			c-5.604,9.506-11.688,19.362-15.131,29.853c-1.473,1.696-1.475,4.646-1.876,6.824c-0.483,2.621-0.976,5.242-1.599,7.834
			c-0.624,2.596-1.383,5.164-2.382,7.643c-0.838,2.079-3.018,4.717-1.914,7.04c-1.905-0.173-1.72,1.359-1.97,2.706
			c-0.497,2.677-2.358,5.584-3.379,8.125c-2.167,5.392-3.898,11.25-6.775,16.313c-2.568,4.52-6.307,8.186-9.734,12.039
			c-1.485,1.669-2.808,3.286-4.552,4.689c-1.579,1.271-2.914,2.766-2.68,4.938c-2.591-0.914-2.799,2.108-4.71,2.83
			c0.115,0.285,0.235,0.569,0.36,0.85c-3.18-0.123-5.517,1.826-7.042,4.457c-1.105,1.906-1.318,1.576-3.387,2.01
			c-1.364,0.287-2.648,0.856-3.823,1.602c-2.355,1.494-4.242,3.584-6.314,5.424c-2.409,2.139-5.276,3.587-7.655,5.783
			c-2.538,2.343-5.032,5.76-8.28,7.128c-1.628,0.686-3.399,0.912-5.068,1.466c-1.78,1.327-3.561,2.654-5.34,3.981
			c-7.173,5.349-14.213,11.678-22.193,15.731c-7.135,3.624-14.431,8.214-20.71,13.173c-1.381,1.09-2.905,1.588-4.334,2.502
			c-0.816,0.522-1.381,1.743-2.442,1.817c-1.283,0.091-0.607-0.779-1.948,0.259c-0.82,0.635-1.642,1.268-2.463,1.901
			c-0.822,0.634-1.645,1.268-2.467,1.901c-1.245,0.96-1.519,0.062-2.917-0.137c-2.556-0.361-4.349,1.771-6.014,3.348
			c-1.799,1.703-3.904,1.895-5.96,3.085c-1.114,0.646-1.803,1.672-1.951,2.957c-1.092,0.758-1.988,1.758-2.992,2.622
			c-0.819,0.706-1.862,1.512-3.018,1.359c-1.748-0.23-2.015-2.696-3.54-1.841c-0.263-0.575-0.426-1.275,0.48-1.08
			c-3.903-7.068-8.925-12.962-13.563-19.539c-4.854-6.885-9.092-14.176-13.25-21.494c-4.173-7.346-8.492-14.594-11.974-22.302
			c-3.517-7.788-6.496-15.801-9.768-23.692c-0.639-1.54-1.799-3.32-2.005-4.948c-0.164-1.293-2.603-2.433-3.611-3.334
			c-2.734-2.446-4.924-5.423-6.704-8.618c-3.708-6.659-6.141-14.141-9.064-21.165c-0.922-2.216-1.459-4.967-3.89-6.042
			c-1.825-0.807-2.553,0.839-4.014,1.828c-1.641,1.11-3.451,1.932-5.244,2.762c-5.961,2.759-12.846,9.796-19.894,8.649
			c-4.546-0.739-3.767-6.18-3.613-9.55c0.14-3.076-0.557-6.231-0.911-9.279c-0.533-4.592-1.077-9.186-1.862-13.743
			c-1.55-8.998-1.637-18.118-2.896-27.146c-1.256-9.008-2.61-18.027-4.247-26.974c-0.393-2.149-0.809-4.293-1.256-6.432
			c-0.377-1.808-0.525-4.011-1.55-5.588c-1.909-2.935-1.987-6.469-3.145-9.76c-2.259-6.42-6.481-11.765-12.292-15.323
			c-6.739-4.125-14.51-6.064-21.32-10.005c-2.674-1.547-4.225-2.239-6.937-0.578c-2.477,1.517-4.037,3.862-2.757,6.765
			c-0.014,0.607,0.138,0.87,0.456,0.788c-3.398,2.063,3.702,7.853-2.21,8.12c-0.025,0.001,1.372,3.75,1.352,4.328
			c-0.047,1.344-1.157,2.246-1.303,3.601c-0.125,1.172-0.111,2.737-0.069,3.711c-2.031,3.162-0.079,6.53,0.482,9.792
			c0.757,4.404,0.427,9.178,0.399,13.631c-0.056,9.048,0.405,18.046,0.931,27.077c0.534,9.145,1.236,18.292,2.63,27.351
			c1.356,8.814,2.689,17.489,3.062,26.418c0.38,9.104,0.185,18.225,0.505,27.333c0.284,8.083-0.045,16.791,3.154,24.374
			c2.625,6.222,7.046,11.404,11.265,16.589c4.85,5.959,10.17,11.266,16.237,16.029c3.004,2.357,6.507,3.939,9.584,6.206
			c3.367,2.481,6.457,5.314,9.583,8.085c6.147,5.448,12.712,10.084,19.479,14.717c3.187,2.183,6.546,3.701,9.927,5.512
			c3.636,1.947,6.679,4.788,10.05,7.129c2.16,2.083,4.281,5.297,6.144,7.831c2.649,3.604,5.002,7.439,7.402,11.211
			c2.188,3.438,4.355,6.868,6.751,10.164c2.988,4.11-2.593,2.169-4.875,2.316c-4.139,0.268-2.357,5.929-2.119,8.478
			c0.438,4.669,0.762,9.35,0.944,14.035c0.352,9.09-0.064,18.182,0.229,27.274c0.295,9.145,0.886,18.279,1.03,27.428
			c0.144,9.093-0.901,18.143-0.718,27.221c0.086,4.296,0.4,8.584,0.801,12.861c0.149,1.772,0.369,4.541,2.605,4.868
			c3.802,0.556,8.468-0.707,12.274-1.11c4.603-0.488,9.192-0.604,13.808-0.855c8.902-0.486,17.83-1.658,26.743-0.692
			c2.803,0.301,5.972,1.222,8.11-1.27c0.029,0.09,3.415,0.283,3.87,0.318c2.208,0.173,4.448,0.213,6.63-0.221
			c1.692-0.336,3.308-1.58,4.915-1.286c1.918,0.351,3.875,0.454,5.822,0.371c4.191-0.18,8.283-1.193,12.357-2.119
			c3.785-0.861,7.618-1.663,11.517-1.693c3.958-0.028,7.954-0.405,11.753-1.564c3.71-1.133,6.647-2.338,10.637-1.966
			c3.35,0.312,7.182,2.689,9.786-0.407c3.217-3.824,1.299-8.895,1.245-13.36c-0.071-5.79,0.779-11.552,0.619-17.343
			c-0.062-2.612-0.302-5.218-0.294-7.832c0.009-2.754,0.647-5.315,0.951-8.026c0.622-5.552-0.21-11.32-0.031-16.914
			c0.356-11.168,0.897-22.33,1.497-33.486c0.156-2.912,0.316-5.824,0.475-8.737c0.079-1.457,0.157-2.914,0.235-4.371
			c0.086-1.629-0.148-0.67-0.436-1.885c-0.158-0.672,0.985-0.418,1.191-1.053c0.22-0.678,0.15-1.414,0.143-2.113
			c-0.017-1.396,0.489-2.776,2.079-2.872c-0.442-3.29,1.352-7.593,2.483-10.627c1.469-3.935,3.398-7.682,4.787-11.647
			c2.514-7.174,7.252-12.44,12.219-18.043c11.786-13.296,22.441-27.709,33.578-41.551c5.283-6.567,11.181-12.706,16.106-19.549
			c5.027-6.983,9.351-14.453,14.048-21.655c2.001-3.067,4.963-6.135,5.693-9.785c0.344-1.723,0.949-1.92,2.381-2.818
			c1.525-0.957,2.856-2.187,3.905-3.652c0.881-1.232,1.571-2.601,2.107-4.015c0.369-0.975,0.751-2.547,1.699-3.143
			c0.91-0.572,2.574-0.292,3.651-0.814c1.219-0.589,2.201-1.557,2.922-2.692c1.455-2.291,1.644-4.844,2.185-7.425
			c0.83-3.966,2.651-7.585,4.861-10.953c2.361-3.598,4.979-6.953,7.046-10.745c2.195-4.028,4.225-8.094,6.836-11.877
			c5.49-7.952,10.631-16.151,16.479-23.853c2.774-3.654,5.34-7.254,7.47-11.334c0.687-1.314,6.136-12.057,5.782-12.213
			c0.17-0.3,0.273-0.263,0.311,0.11c2.452-7.046,6.05-13.605,9.549-20.169c1.623-3.044,2.956-6.429,4.862-9.299
			C521.442,233.303,524.12,230.556,522.28,228.49C519.86,225.78,524.32,230.78,522.28,228.49z M181.38,343.54
			C181.267,343.316,181.303,343.388,181.38,343.54L181.38,343.54z M203.73,384.56c-1.154,0.269,0.106-2.074,0.14-2.13
			c0.398,0.448,0.808,0.885,1.21,1.33C204.668,384.092,204.218,384.359,203.73,384.56C203.6,384.59,204.13,384.47,203.73,384.56z
			 M276.36,469.81C276.622,469.988,276.236,469.623,276.36,469.81C276.39,469.831,276.34,469.78,276.36,469.81z M418.69,342.81
			c-0.104-0.153-0.207-0.307-0.311-0.46C418.872,342.156,418.976,342.31,418.69,342.81C418.59,342.66,418.73,342.64,418.69,342.81z"
			/>
		<path fill-rule="evenodd" clip-rule="evenodd" fill="#DFB883" d="M361.424,236.821c-1.325,0.315-2.649,0.63-3.975,0.945
			c0.017-0.222,0.062-0.438,0.136-0.646c-0.197,0.745-0.061,0.789,0.271,1.653c-3.324-1.061-6.806-0.778-10.084,0.302
			c-2.995,0.987-5.66,2.996-8.662,3.848c-2.401,0.682-5.279,0.589-6.574,3.147c-0.906,0.629-1.092,0.479-2.037,0.981
			c-0.333-0.236-0.812-0.689-1.273-0.606c-0.419,0.075-1.192,1.125-1.657,1.362c-1.343,0.687-1.086,0.339-1.847-0.721
			c-0.211,1.312,0.071,1.554-1.287,2.03c-1.355,0.476-2.711,0.951-4.066,1.426c-2.711,0.95-5.422,1.9-8.133,2.85
			c0.85-6.273,1.519-12.408,2.854-18.604c1.419-6.587,1.653-13.342,2.496-20.011c1.721-13.624,3.447-27.345,5.771-40.88
			c2.234-13.023,4.619-26.049,7.828-38.849c1.496-5.97,1.289-12.322,3.819-18.028c0.611-1.376,1.762-2.411,2.246-3.879
			c0.308-0.935,0.324-1.945-0.178-2.819c-0.247-0.415-0.558-0.773-0.935-1.076c-0.911-0.755-0.153-0.993-0.514-1.188
			c-0.368,1.732,1.741-1.537,2.027-2.182c0.673-1.518,0.944-3.17,1.266-4.787c0.695-3.505,2.152-5.847,4.938-8.119
			c2.958-2.412,6.019-4.667,8.959-7.106c1.25-1.037,2.69-2.077,4.341-2.314c1.846-0.265,3.837,0.137,5.414-1.114
			c-0.162-0.556,0.607,1.8,0.489,1.459c2.627-2.409,5.037,0.505,7.852,0.432c1.604,2.316,1.958,5.274,2.337,8.069
			c0.431,3.171,1.985,5.99,1.867,9.225c-0.102,2.748-0.808,5.722,0.472,8.311c0.712,1.441,1.947,1.896,1.6,3.625
			c-0.276,1.375-0.184,2.183-0.212,3.489c-0.054,2.515-2.071,4.484-0.689,7.037c1.525,2.82,0.133,7.276-0.203,10.274
			c-0.921,8.212-3.281,16.063-4.452,24.202c-0.529,3.68-0.219,7.398-0.612,11.094c-0.425,3.995-1.236,7.933-1.848,11.901
			c-0.581,3.775-0.928,7.456-1.895,11.165c-0.456,1.751-0.893,3.519-1.037,5.328c-0.095,1.184,0.78,3.903,0.405,4.828
			c-0.364,0.896-2.924-1.353-2.242,1.316c1.035,4.053,0.725,8.25,0.165,12.348c-0.471,3.441-1.658,7.493-1.126,10.964
			c0.314,2.053,0.499,4.069-2.138,4.367C363.116,233.342,361.947,235.054,361.424,236.821
			C360.099,237.137,361.917,235.156,361.424,236.821z"/>
		<path fill-rule="evenodd" clip-rule="evenodd" fill="#DFB883" d="M455.69,169.54C455.541,169.735,455.708,169.577,455.69,169.54
			C455.69,169.54,455.7,169.56,455.69,169.54z M430.29,264.06C430.328,263.956,430.29,264.011,430.29,264.06
			C430.29,264.06,430.29,264.04,430.29,264.06z M405.8,197.19C406.067,197.19,406.084,196.912,405.8,197.19
			C405.83,197.19,405.82,197.17,405.8,197.19z"/>
		<path fill-rule="evenodd" clip-rule="evenodd" fill="#DFB883" d="M458.73,154.31c1.137-5.477,0.882-11.096-0.438-16.516
			c-0.883-3.624-2.634-7.865-6.657-8.845c-4.049-0.986-7.933,1.773-10.799,4.29c-3.748,3.292-7.945,6.262-10.927,10.317
			c-3.109,4.229-5.563,9.021-7.981,13.665c-2.632,5.056-5.41,10.076-7.922,15.188c-2.312,4.706-1.854,10.045-3.849,14.766
			c-1.051,2.487-2.359,4.855-3.662,7.216c-0.202,0.367-2.431,3.632-0.465,2.649c-2.152,2.174-1.837,4.511-2.945,7.276
			c-1.646,4.108-3.485,8.135-5.114,12.25c-1.59,4.016-2.582,8.1-3.813,12.219c-1.106,3.7-2.747,7.564-1.177,11.396
			c-3.271-2.74-3.105,0.555-4.795,2.474c-0.562,0.639,3.536,4.754,4.324,5.446c1.444,1.271,3.104,2.26,4.733,3.271
			c1.63,1.011,3.26,2.062,4.615,3.433c1.405,1.422,1.872,3.441,3.198,4.822c0.694,0.724,1.666,1.175,2.677,1.171
			c1.452-0.006,1.761,1.387,2.52,2.625c1.675,2.734,3.351,5.467,5.027,8.2c0.685-0.6,0.804-0.964,1.529-0.39
			c-0.959,0.144-1.186,0.527-0.68,1.15c0.35,0.813,0.843,1.559,1.132,2.399c0.417,1.211,0.342,2.385,1.123,3.478
			c1.269,1.774,3.495,2.444,5.325,3.453c-0.503-1.498-1.897-3.974-1.318-5.471c0.641-1.659,1.644-3.142,2.666-4.585
			c1.372-1.937,4.57-5.768,3.883-8.153c0.391,0.097,0.959,0.329,1.359,0.5c0.114-0.947-0.082-1.981,0.244-2.896
			c0.329-0.925,1.402-1.713,1.94-2.548c1.355-2.104,2.033-4.536,2.475-6.977c0.409-2.266,0.329-5.059,1.245-7.184
			c0.605-1.405,2.35-0.206,2.56-0.541c0.122-0.193-0.84-3.08-0.854-3.612c-0.039-1.418,0.255-2.82,0.662-4.171
			c0.817-2.708,1.778-5.248,2.338-8.029c0.553-2.742,1.907-5.255,3.028-7.792c1.472-3.328,2.102-6.698,2.86-10.234
			c1.524-7.102,3.472-14.102,5.315-21.124c0.923-3.512,1.82-7.032,2.627-10.573c0.578-2.505,2.517-6.398,0.859-8.71
			C459.187,166.465,457.829,158.635,458.73,154.31C459.94,148.48,457.67,159.4,458.73,154.31z M395.33,243.95
			c-0.417-0.764-0.404-0.585,0.05-1.04C395.878,243.292,395.861,243.638,395.33,243.95C395.21,243.73,395.46,243.8,395.33,243.95z
			 M399.94,249.27C399.962,249.153,400.271,248.77,399.94,249.27C399.94,249.27,400,249.18,399.94,249.27z M429.16,262.41
			C429.086,262.14,429.274,261.958,429.16,262.41C429.13,262.3,429.19,262.29,429.16,262.41z"/>
		<path fill-rule="evenodd" clip-rule="evenodd" fill="#AD4202" d="M393.012,242.344
			C392.908,242.83,393.628,241.905,393.012,242.344C392.997,242.413,393.097,242.283,393.012,242.344z"/>
		<path fill-rule="evenodd" clip-rule="evenodd" fill="#DFB883" d="M87.981,249.299c0.185-0.006-1.583,0.113-1.234,0.07
			c0.2-0.631,0.4-1.263,0.601-1.894C87.36,247.517,88.04,249.427,87.981,249.299z"/>
		<path fill-rule="evenodd" clip-rule="evenodd" fill="#DFB883" d="M266.344,652.416c-0.833,0.843-1.284-0.166-2.061-0.794
			C264.97,651.886,265.657,652.151,266.344,652.416C266.184,652.578,265.657,652.151,266.344,652.416z"/>
		<path fill-rule="evenodd" clip-rule="evenodd" fill="#DFB883" d="M346.914,508.206c0.207,0.327,0.415,0.653,0.623,0.979
			c0.146-0.05-1.427,0.481-1.045,0.432C346.461,509.712,346.972,507.923,346.914,508.206z"/>
		<path fill-rule="evenodd" clip-rule="evenodd" fill="#DFB883" d="M362.568,82.436c0.949-0.49,1.185-1.124,1.677,0.058
			C364.369,82.5,362.271,82.447,362.568,82.436z"/>
		<path fill-rule="evenodd" clip-rule="evenodd" fill="#DFB883" d="M358.165,62.262C356.195,63.669,356.429,60.896,358.165,62.262
			C357.7,62.594,357.773,61.954,358.165,62.262z"/>
		<path fill-rule="evenodd" clip-rule="evenodd" fill="#DFB883" d="M441.264,368.501c-0.89,0.427-1.073,0.783-1.672,0.003
			C440.428,368.045,440.449,368.019,441.264,368.501C440.671,368.786,440.854,368.258,441.264,368.501z"/>
		<path fill-rule="evenodd" clip-rule="evenodd" fill="#DFB883" d="M166.871,316.966c-0.137-0.133-0.274-0.266-0.411-0.398
			C166.634,316.824,166.722,316.843,166.871,316.966z"/>
		<path fill-rule="evenodd" clip-rule="evenodd" fill="#DFB883" d="M175.319,650.7C174.482,651.043,175.002,649.84,175.319,650.7
			C175.195,650.75,175.272,650.574,175.319,650.7z"/>
		<path fill-rule="evenodd" clip-rule="evenodd" fill="#DFB883" d="M376.723,115.757
			C377.357,115.721,376.81,115.738,376.723,115.757C376.825,115.751,376.723,115.757,376.723,115.757z"/>
		<path fill-rule="evenodd" clip-rule="evenodd" fill="#DFB883" d="M164.648,320.812
			C163.763,320.746,164.917,320.833,164.648,320.812C164.556,320.805,164.648,320.812,164.648,320.812z"/>
		<path fill-rule="evenodd" clip-rule="evenodd" fill="#DFB883" d="M174.402,643.975c-0.272,0.263-0.452,0.219-0.539-0.133
			C174.12,643.593,174.3,643.637,174.402,643.975C174.283,644.041,174.335,643.869,174.402,643.975z"/>
		<path fill-rule="evenodd" clip-rule="evenodd" fill="#DFB883" d="M267.519,651.483
			C267.282,651.755,267.338,651.157,267.519,651.483C267.484,651.523,267.493,651.436,267.519,651.483z"/>
		<path fill-rule="evenodd" clip-rule="evenodd" fill="#DFB883" d="M305.515,169.551
			C305.572,169.414,305.53,169.514,305.515,169.551L305.515,169.551z"/>
		<path fill-rule="evenodd" clip-rule="evenodd" fill="#DFB883" d="M402.919,152.884
			C402.932,152.688,402.932,152.689,402.919,152.884L402.919,152.884z"/>
		<path fill-rule="evenodd" clip-rule="evenodd" fill="#DFB883" d="M440.362,132.024c-0.107,0.191-0.198,0.186-0.273-0.017
			C440.188,131.815,440.279,131.821,440.362,132.024C440.312,132.071,440.318,131.972,440.362,132.024z"/>
		<path fill-rule="evenodd" clip-rule="evenodd" fill="#DFB883" d="M269.559,651.002C269.004,650.699,269.5,650.956,269.559,651.002
			C269.471,650.955,269.559,651.002,269.559,651.002z"/>
		<path fill-rule="evenodd" clip-rule="evenodd" fill="#DFB883" d="M278.833,627.91c0.08,0.14,0.16,0.28,0.24,0.42
			C278.54,628.274,278.459,628.134,278.833,627.91C278.914,628.049,278.757,627.985,278.833,627.91z"/>
		<path fill-rule="evenodd" clip-rule="evenodd" fill="#DFB883" d="M344.024,595.52c-0.104,0.205-0.2,0.203-0.29-0.005
			C343.83,595.31,343.927,595.312,344.024,595.52C343.974,595.571,343.975,595.467,344.024,595.52z"/>
		<path fill-rule="evenodd" clip-rule="evenodd" fill="#DFB883" d="M407.481,139.878c0.029,0.227,0.058,0.454,0.087,0.68
			C407.11,140.321,407.081,140.095,407.481,139.878C407.511,140.105,407.389,139.971,407.481,139.878z"/>
		<path fill-rule="evenodd" clip-rule="evenodd" fill="#DFB883" d="M349.356,502.745
			C349.232,502.692,349.293,502.718,349.356,502.745L349.356,502.745z"/>
		<path fill-rule="evenodd" clip-rule="evenodd" fill="#DFB883" d="M126.272,463.143c0.19-0.179,0.367-0.37,0.529-0.574
			C126.292,462.716,126.116,462.908,126.272,463.143z"/>
		<path fill-rule="evenodd" clip-rule="evenodd" fill="#DFB883" d="M126.765,462.614
			C126.773,462.435,126.767,462.568,126.765,462.614L126.765,462.614z"/>
		<path fill-rule="evenodd" clip-rule="evenodd" fill="#DFB883" d="M430.285,264.055
			C430.71,264.026,430.353,264.044,430.285,264.055C430.349,264.051,430.285,264.055,430.285,264.055z"/>
		<path fill-rule="evenodd" clip-rule="evenodd" fill="#DFB883" d="M86.705,249.343C86.41,249.306,86.879,249.365,86.705,249.343
			L86.705,249.343z"/>
		<path fill-rule="evenodd" clip-rule="evenodd" fill="#DFB883" d="M487.922,234.051
			C487.854,234.337,487.81,234.162,487.922,234.051C487.906,234.117,487.922,234.051,487.922,234.051z"/>
		<path fill-rule="evenodd" clip-rule="evenodd" fill="#DFB883" d="M469.063,112.878C469.2,113.129,469.051,112.854,469.063,112.878
			L469.063,112.878z"/>
		<path fill-rule="evenodd" clip-rule="evenodd" fill="#DFB883" d="M392.818,230.23C392.834,230.067,392.833,230.07,392.818,230.23
			L392.818,230.23z"/>
		<path fill-rule="evenodd" clip-rule="evenodd" fill="#DFB883" d="M165.869,314.724
			C165.719,314.715,165.948,314.728,165.869,314.724L165.869,314.724z"/>
		<path fill-rule="evenodd" clip-rule="evenodd" fill="#DFB883" d="M520.903,205.574
			C520.885,205.788,520.885,205.789,520.903,205.574L520.903,205.574z"/>
		<path fill-rule="evenodd" clip-rule="evenodd" fill="#DFB883" d="M370.909,84.326c0.005-0.363,0.104-0.411,0.297-0.144
			C370.904,84.193,370.806,84.241,370.909,84.326z"/>
		<path fill-rule="evenodd" clip-rule="evenodd" fill="#DFB883" d="M163.977,300.063
			C163.943,299.92,163.965,300.015,163.977,300.063L163.977,300.063z"/>
		<path fill-rule="evenodd" clip-rule="evenodd" fill="#AD4202" d="M325.29,405.909c-5.222,0.451-7.775,5.492-11.987,7.857
			c-2.466,1.385-4.052,3.5-6.303,5.14c-1.529,1.114-2.158,3.571-4.083,1.099c-0.371,2.788-2.769,1.933-4.853,2.432
			c-3.744,0.897-6.904,3.462-9.911,5.731c-3.12,2.354-6.138,4.841-9.124,7.362c-2.419,2.042-6.941,4.571-7.708,7.658
			c1.386-0.682,2.098-0.245,3.544,0.221c-0.496,1.201-0.651,3.302-2.036,3.891c-0.696,0.297-0.436-1.167-0.635-1.457
			c-2.34-3.405-4.411-0.828-7.185,0.159c-1.529,0.545-3.325,1.75-2.677-0.944c0.248-1.031-2.094-1.326-2.742-1.754
			c-1.126-0.743-1.916-1.859-2.47-3.072c-0.913-1.997-1.176-4.213-2.048-6.22c-1.654-3.803-4-7.412-6.085-10.989
			c-4.243-7.279-8.609-14.526-11.87-22.315c-3.223-7.699-8.075-14.332-12.288-21.486c-4.3-7.304-8.292-14.613-12.01-22.22
			c-1.46-2.987-3.858-5.425-5.191-8.479c-1.206-2.761-1.253-5.465-2.838-8.161c-1.266-2.153-2.55-4.481-1.81-7.052
			c0.38-1.322,1.668-2.479,1.262-3.93c-0.446-1.592-1.874-2.695-2.686-4.085c-1.917-3.284-3.029-6.94-4.315-10.496
			c-1.427-3.945-3.62-7.329-5.461-11.066c-3.681-7.47-5.223-15.598-5.147-23.894c0.073-8.051,0.481-17.135,4.254-24.418
			c3.375-6.517,9.783-11.63,16.038-15.241c6.926-3.998,14.41-6.295,22.345-7.144c3.852-0.412,7.687-0.923,11.52-0.128
			c1.718,0.356,3.4,0.855,5.11,1.245c1.921,0.438,3.843,0.353,5.761,0.687c2.848,0.495,5.009,2.409,7.483,3.734
			c1.263,0.677,2.738,0.854,3.954,1.589c1.739,1.05,3.048,2.792,4.126,4.477c4.704,7.355,9.08,15.385,12.395,23.466
			c1.557,3.794,2.775,7.713,4.034,11.613c0.84,2.604,2.297,7.475,5.956,6.74c3.317-0.666,5.622-3.431,9.067-3.978
			c4.102-0.652,7.798-1.377,11.746-2.774c8.044-2.846,15.748-6.547,23.354-10.391c3.558-1.797,7.352-3.198,11.277-3.928
			c3.227-0.6,5.767-2.813,8.947-3.369c2.842-0.497,6.39-0.802,9.284-0.754c4.208,0.069,8.022,2.865,11.623,4.766
			c3.706,1.956,7.408,3.917,11.089,5.918c2.554,1.389,3.639,5.99,4.741,8.473c1.531,3.445,2.769,7.047,4.74,10.279
			c2.157,3.536,3.687,6.439,4.065,10.654c0.305,3.395,0.151,6.854,0.936,10.192c0.995,4.237,2.015,7.825,1.271,12.239
			c-0.732,4.348-2.334,8.747-4.873,12.352c-2.636,3.741-4.164,8.668-6.063,12.843c-1.435,3.154-2.126,6.406-3.245,9.633
			c-0.372,1.074-0.979,2.204-2.055,2.708c-1.415,0.663-2.67-0.288-4.07-0.182c1.226,1.658-0.908,1.458-1.393,2.562
			c-0.323,0.736,0.794,1.007,1.047,1.519c0.114,0.23-0.808,0.755-0.968,1.058c-0.412,0.776-0.556,2.245-1.368,2.727
			c-0.546,0.323-1.097-0.426-1.355-0.789c-0.933-1.307-0.614-1.4-2.153-0.961c3.614,3.846-1.6,5.618-2.044,9.163
			c-2.309-0.511-3.969,0.608-5.341,2.357c-1.668,2.127-3.528,3.843-5.547,5.646c-2.17,1.938-4.465,3.785-7.162,4.938
			c-2.657,1.135-4.176,3.861-6.479,5.611c0.386-2.001-0.133-2.995-1.614-0.975c-0.526,0.717-0.74,3.204-1.968,3.151
			c-1.125-0.048-2.397-2.544-3.708-1.608c-1.222,0.871,1.213,1.377,0.402,2.803c-0.26,0.459-1.143,0.091-1.415-0.1
			c-0.975-0.683-1.542,0.112-2.479,0.666c-2.066,1.219-4.141,2.429-6.14,3.759c-1.3,0.865-2.444,1.962-3.728,2.82
			c-1.032,0.69-3.636-0.054-3.696,0.027C324.651,405.646,324.971,405.777,325.29,405.909
			C319.667,406.395,324.971,405.777,325.29,405.909z M322.546,296.238c-1.229-0.389-1.854,0.588-2.578,1.376
			c-1.029,1.121-2.639,1.278-3.765,2.362c-1.151,1.108-5.648,5.494-4.449,7.13c2.28,3.112,5.619,0.338,8.636,0.594
			c4.493,0.381,8.954-0.646,13.383-1.233c4.651-0.617,9.212-1.348,13.818-2.259c3.743-0.74,7.504-1.174,11.03-2.725
			c1.503-0.662,2.941-1.479,4.255-2.465c0.987-0.741,2.796-3.498,3.828-3.759c0.445-0.113,1.163,1.405,1.412,0.716
			c0.483-1.341-1.501-2.173-2.28-2.924c0.908-0.51,2.258-1.252,0.955-2.271c-0.644-0.503-1.881-0.927-2.244-1.662
			c-0.216-0.436,0.874-1.453,0.977-2.05c0.424-2.468-4.466-2.376-3.736-4.933c-7.215,1.84-14.165,4.352-21.089,7.104
			C334.894,291.548,328.674,295.623,322.546,296.238z M255.287,386.161c0.276,0.727,0.688,2.456,1.633,2.889
			c0.449,0.206,1.58-0.033,1.528-0.695c-0.045-0.573-0.771-1.06-1.111-1.455c-0.899-1.044-0.911-2.651-1.895-3.813
			c-1.441-1.703-1.929-3.102-2.495-5.283c-1.24-4.773-2.278-9.644-4.334-14.152c-2.203-4.83-3.026-9.354-4.151-14.506
			c-0.984-4.509-3.764-7.903-5.224-12.173c-1.578-4.616-1.901-9.622-3.237-14.314c-2.605-9.146-12.463-17.666-10.673-27.812
			c0.208,1.203,0.073-1.583-0.001-1.324c-1.379-0.377-1.74-1.036-0.774-2.085c1.203-1.309-0.505-2.75-0.465-4.44
			c0.054-2.257,1.249-4.271,1.709-6.442c0.604-2.239,1.282-4.941,1.927-7.361c0.612-2.294,1.064-4.794,1.99-6.985
			c0.896-2.12,1.536-3.364,0.696-5.676c-0.925-2.547-2.489-6.262-5.827-5.749c-3.33,0.512-6.352,3.502-8.875,5.534
			c-2.908,2.342-5.725,5.007-7.257,8.48c-1.82,4.126-0.907,8.025-0.68,12.332c0.29,5.514-0.588,11.144,0.92,16.544
			c-0.197-1.145,0.163,1.613,0.452,2.188c0.657,1.305,1.86,2.208,2.783,3.308c0.871,2.83,2.582,5.786,3.691,8.695
			c1.21,3.177,2.311,5.931,3.966,8.92c1.716,3.099,1.741,6.64,3.057,9.898c1.429,3.537,3.449,6.793,4.981,10.283
			c1.104,1.187,2.632,2.512,3.817,3.84c1.509,1.69,2.471,3.773,3.481,5.782c2.16,4.295,4.094,8.703,6.391,12.929
			C245.521,371.266,249.377,379.521,255.287,386.161z M273.44,444.568c0.2-0.118,0.399-0.235,0.599-0.354
			c-0.337-0.463-0.196-0.49-0.868-0.186C273.261,444.208,273.351,444.388,273.44,444.568
			C273.694,444.418,273.333,444.352,273.44,444.568z M239.481,332.709C239.579,332.217,238.984,332.813,239.481,332.709
			C239.493,332.65,239.43,332.72,239.481,332.709z M208.951,266.524C208.97,266.292,208.971,266.288,208.951,266.524
			L208.951,266.524z"/>
		<path fill-rule="evenodd" clip-rule="evenodd" fill="#DFB883" d="M249.199,177.272c1.665,5.172,3.193,9.739,3.673,15.202
			c0.248,2.824,0.411,5.654,0.586,8.483c0.087,1.415,0.178,2.829,0.284,4.243c0.066-0.083,0.654,1.204,0.698,1.788
			c-0.748-0.572-2.72-1.098-3.069,0.241c-0.519,1.991,0.701,0.281,1.46,0.494c1.063,0.303-1.87,0.998-0.878,0.762
			c-1.02,0.243-1.854,0.409-2.902,0.414c-2.003,0.009-3.895-0.788-5.878-1.034c-4.136-0.513-8.681-0.605-12.826-0.164
			c-1.866,0.199-3.735,0.609-5.426,1.445c-1.122,0.555-1.648,0.743-2.889,0.492c-0.703-0.142-1.725-0.432-2.258,0.242
			c-0.351,0.443-0.396,1.103-0.401,1.638c-1.167,0.458-2.313,0.964-3.472,1.441c-3.522,1.45-7.242,2.496-10.987,1.2
			c0.234-4.627,0.014-9.262-0.367-13.875c-0.729-8.833-1.618-17.663-2.542-26.477c-0.374-3.563-0.703-7.204-0.292-10.776
			c0.143-1.24,0.179-2.513-0.143-3.73c-0.418-1.58-1.948-2.537-2.063-4.168c-0.113-1.599,0.316-3.204,0.435-4.793
			c0.143-1.921-0.21-3.887-0.321-5.806c-0.263-4.547-0.227-9.123,0.293-13.651c1.011-8.797,1.242-17.599,1.805-26.429
			c0.27-4.219,0.667-8.435,1.393-12.602c0.605-3.477,0.958-7.65,3.948-9.971c3.229-2.507,7.42-2.359,11.291-2.582
			c4.207-0.242,8.407,0.283,11.703,3.134c2.729,2.36,4.351,5.73,5.68,9.016c0.886,2.191,1.624,4.438,2.331,6.692
			c0.596,1.897,2.362,5.075,1.188,6.715c0.591,0.466,0.877,0.24,0.859-0.678c1.615,12.113,3.187,24.137,5.679,36.109
			c1.262,6.064,2.317,12.049,2.618,18.249c0.157,3.24,0.004,6.504,0.214,9.737c0.092,1.416,0.351,2.815,0.642,4.201
			C249.617,174.159,250.775,176.265,249.199,177.272C250.263,180.577,249.51,177.073,249.199,177.272z"/>
		<path fill-rule="evenodd" clip-rule="evenodd" fill="#AD4202" d="M221.12,211.24c0.222,0.108,0.443,0.216,0.665,0.324
			c-0.015-1.021-0.481-1.336-1.4-0.946C220.629,210.825,220.875,211.032,221.12,211.24
			C221.341,211.348,220.874,211.032,221.12,211.24z M250.08,208.91c0.411,0.501,0.89,1.054,1.33,1.57
			C250.967,209.957,250.523,209.434,250.08,208.91z"/>
		<path fill-rule="evenodd" clip-rule="evenodd" fill="#AD4202" d="M306.599,450.025c0.117,0.048,0.233,0.096,0.351,0.144
			C307.019,449.731,306.893,449.595,306.599,450.025C306.716,450.073,306.671,449.919,306.599,450.025z"/>
		<path fill-rule="evenodd" clip-rule="evenodd" fill="#AD4202" d="M276.825,465.508C276.39,465.37,276.769,465.982,276.825,465.508
			C276.77,465.491,276.818,465.562,276.825,465.508z"/>
		<path fill-rule="evenodd" clip-rule="evenodd" fill="#AD4202" d="M328.544,247.309c0.164-0.501,0.479-1.046,1.087-0.806
			c0.309,0.151,0.598,0.333,0.867,0.548c0.35-0.383,0.747-0.515,1.193-0.396C331.298,249.776,330.031,246.947,328.544,247.309
			C329.017,245.866,329.585,247.056,328.544,247.309z"/>
		<path fill-rule="evenodd" clip-rule="evenodd" fill="#AD4202" d="M325.451,248.76c0.091-0.558,0.181-1.115,0.271-1.673
			c0.291,0.406,0.582,0.813,0.872,1.22C326.213,248.458,325.832,248.609,325.451,248.76
			C325.542,248.203,325.832,248.609,325.451,248.76z"/>
		<path fill-rule="evenodd" clip-rule="evenodd" fill="#AD4202" d="M415.276,271.618c0.702-0.597,0.799-0.967,1.536-0.385
			C416.357,271.799,415.846,271.927,415.276,271.618C415.602,271.341,415.475,271.672,415.276,271.618z"/>
		<path fill-rule="evenodd" clip-rule="evenodd" fill="#AD4202" d="M205.369,383.461c-0.11-0.173-0.22-0.347-0.33-0.52
			C205.149,383.116,205.259,383.289,205.369,383.461z"/>
		<path fill-rule="evenodd" clip-rule="evenodd" fill="#AD4202" d="M373.658,376.896l0.013-0.013L373.658,376.896z"/>
		<path fill-rule="evenodd" clip-rule="evenodd" fill="#AD4202" d="M373.671,376.883c-0.154-0.155-0.31-0.31-0.464-0.464
			C373.2,376.59,373.677,376.889,373.671,376.883z"/>
		<path fill-rule="evenodd" clip-rule="evenodd" fill="#DFB883" d="M168.174,305.016l-0.011-0.01
			C168.164,305.005,168.174,305.016,168.174,305.016z"/>
		<path fill-rule="evenodd" clip-rule="evenodd" fill="#802E02" d="M254.355,205.843c-0.258-0.147-0.516-0.294-0.773-0.441
			c0.316-0.4,1.073-0.056,1.526,0.016C254.857,205.559,254.606,205.701,254.355,205.843
			C254.098,205.696,254.606,205.701,254.355,205.843z"/>
		<path fill-rule="evenodd" clip-rule="evenodd" fill="#DFB883" d="M179.965,98.008c-0.106-0.628-0.227-0.708,0.361-0.938
			C180.571,97.459,180.451,97.772,179.965,98.008C179.907,97.664,180.195,97.757,179.965,98.008z"/>
		<path fill-rule="evenodd" clip-rule="evenodd" fill="#DFB883" d="M250.133,176.677c0.096,0.675,0.191,1.35,0.288,2.024
			C248.839,178.747,248.904,177.458,250.133,176.677C250.229,177.352,249.822,176.875,250.133,176.677z"/>
		<path fill-rule="evenodd" clip-rule="evenodd" fill="#DFB883" d="M179.234,143.286c0,0.109-0.03,1.352,0.037,1.418
			C179.273,144.925,179.209,142.934,179.234,143.286z"/>
		<path fill-rule="evenodd" clip-rule="evenodd" fill="#DFB883" d="M179.258,143.254
			C178.704,143.037,179.192,143.214,179.258,143.254C179.169,143.22,179.258,143.254,179.258,143.254z"/>
		<path fill-rule="evenodd" clip-rule="evenodd" fill="#DFB883" d="M182.185,189.176c0.042,0.17,0.083,0.341,0.125,0.511
			C181.807,189.579,181.766,189.409,182.185,189.176C182.227,189.347,182.088,189.269,182.185,189.176z"/>
		<path fill-rule="evenodd" clip-rule="evenodd" fill="#DFB883" d="M200.454,65.423C200.489,65.583,200.447,65.393,200.454,65.423
			L200.454,65.423z"/>
		<path fill-rule="evenodd" clip-rule="evenodd" fill="#DFB883" d="M180.213,229.032
			C178.984,229.579,179.286,228.319,180.213,229.032C179.911,229.167,179.946,228.827,180.213,229.032z"/>
		<path fill-rule="evenodd" clip-rule="evenodd" fill="#DFB883" d="M172.547,239.722
			C170.856,240.397,171.202,238.256,172.547,239.722C172.131,239.888,172.204,239.348,172.547,239.722z"/>
		<path fill-rule="evenodd" clip-rule="evenodd" fill="#DFB883" d="M179.858,226.804c0.264,0.218,0.253,0.418-0.035,0.601
			C179.559,227.188,179.57,226.987,179.858,226.804C179.931,226.91,179.774,226.898,179.858,226.804z"/>
		<path fill-rule="evenodd" clip-rule="evenodd" fill="#802E02" d="M180.592,232.683
			C180.491,232.456,180.594,232.687,180.592,232.683L180.592,232.683z"/>
		<path fill-rule="evenodd" clip-rule="evenodd" fill="#AD4202" d="M205.081,383.761c-1.775,1.129-2.248,0.379-1.213-1.328
			C204.271,382.876,204.677,383.318,205.081,383.761C204.478,384.145,204.516,383.143,205.081,383.761z"/>
		<path fill-rule="evenodd" clip-rule="evenodd" fill="#103D6D" d="M346.968,508.178c-0.158,0.479-0.317,0.959-0.476,1.438
			C345.835,508.867,345.495,508.223,346.968,508.178z"/>
		<path fill-rule="evenodd" clip-rule="evenodd" fill="#802E02" d="M256.611,474.518c-0.523,0.273-1.046,0.547-1.569,0.819
			C254.336,473.82,255.663,474.309,256.611,474.518C255.488,475.105,255.784,474.335,256.611,474.518z"/>
		<path fill-rule="evenodd" clip-rule="evenodd" fill="#103D6D" d="M264.44,629.248C264.312,629.429,264.43,629.261,264.44,629.248
			L264.44,629.248z"/>
		<path fill-rule="evenodd" clip-rule="evenodd" fill="#103D6D" d="M185.265,479.539
			C185.265,479.607,185.265,479.612,185.265,479.539L185.265,479.539z"/>
		<path fill-rule="evenodd" clip-rule="evenodd" fill="#103D6D" d="M505.88,264.483c-0.346-0.054-0.375-0.166-0.089-0.337
			C505.952,264.288,505.982,264.4,505.88,264.483z"/>
		<path fill-rule="evenodd" clip-rule="evenodd" fill="#103D6D" d="M90.158,229.554C90.462,229.456,90.232,229.53,90.158,229.554
			L90.158,229.554z"/>
		<path fill-rule="evenodd" clip-rule="evenodd" fill="#802E02" d="M181.24,343.443C181.458,343.48,181.458,343.48,181.24,343.443
			L181.24,343.443z"/>
		<path fill-rule="evenodd" clip-rule="evenodd" fill="#802E02" d="M418.693,342.813c-0.104-0.155-0.209-0.31-0.313-0.465
			C418.872,342.16,418.977,342.315,418.693,342.813C418.589,342.659,418.732,342.644,418.693,342.813z"/>
		<path fill-rule="evenodd" clip-rule="evenodd" fill="#802E02" d="M331.319,246.615c-0.274,0.145-0.549,0.29-0.821,0.436
			C330.772,246.907,331.046,246.761,331.319,246.615z"/>
		<path fill-rule="evenodd" clip-rule="evenodd" fill="#103D6D" d="M335.471,108.774c0.051-0.239,0.102-0.477,0.152-0.716
			C336.054,108.29,335.579,108.482,335.471,108.774z"/>
		<path fill-rule="evenodd" clip-rule="evenodd" fill="#AD4202" d="M357.534,237.281c-0.028,0.162-0.057,0.324-0.085,0.485
			C357.599,237.729,357.528,237.322,357.534,237.281z"/>
		<path fill-rule="evenodd" clip-rule="evenodd" fill="#AD4202" d="M357.54,237.287C357.648,236.9,357.554,237.236,357.54,237.287
			C357.556,237.231,357.54,237.287,357.54,237.287z"/>
		<path fill-rule="evenodd" clip-rule="evenodd" fill="#AD4202" d="M395.74,243.47c-0.137,0.16-0.273,0.32-0.41,0.48
			c-0.417-0.764-0.404-0.585,0.05-1.04C395.5,243.097,395.62,243.284,395.74,243.47C395.59,243.65,395.61,243.26,395.74,243.47z"/>
		<path fill-rule="evenodd" clip-rule="evenodd" fill="#103D6D" d="M429.155,262.415
			C429.084,262.134,429.301,261.95,429.155,262.415C429.126,262.299,429.194,262.291,429.155,262.415z"/>
		<path fill-rule="evenodd" clip-rule="evenodd" fill="#103D6D" d="M429.067,263.497
			C428.792,263.473,429.006,263.491,429.067,263.497L429.067,263.497z"/>
		<path fill-rule="evenodd" clip-rule="evenodd" fill="#AD4202" d="M400.1,249C399.893,249.375,399.666,249.219,400.1,249
			C400.05,249.09,400,249.05,400.1,249z"/>
		<path fill-rule="evenodd" clip-rule="evenodd" fill="#103D6D" d="M455.689,169.543
			C455.57,169.743,455.693,169.538,455.689,169.543L455.689,169.543z"/>
		<path fill-rule="evenodd" clip-rule="evenodd" fill="#103D6D" d="M405.891,197.183
			C406.225,196.827,405.883,197.193,405.891,197.183C405.936,197.135,405.891,197.183,405.891,197.183z"/>
		<path fill-rule="evenodd" clip-rule="evenodd" fill="#DFB883" d="M393.049,242.386
			C392.831,242.834,393.112,242.292,393.049,242.386C393.022,242.44,393.049,242.386,393.049,242.386z"/>
		<path fill-rule="evenodd" clip-rule="evenodd" fill="#DFB883" d="M393.012,242.344
			C393.66,241.881,392.985,242.361,393.012,242.344C393.097,242.283,393.012,242.344,393.012,242.344z"/>
		<path fill-rule="evenodd" clip-rule="evenodd" fill="#DFB883" d="M211.925,303.169c-0.923-1.1-2.125-2.003-2.783-3.308
			c-0.71-1.412-0.864-3.691-1.077-5.269c-0.649-4.807,0.034-9.663-0.363-14.483c-0.327-3.958-0.917-7.537,0.748-11.312
			c1.332-3.019,3.649-5.442,6.134-7.552c3.438-2.92,10.583-10.084,14.309-4.018c0.88,1.433,1.788,3.311,2.008,4.987
			c0.23,1.758-0.96,3.06-1.423,4.65c-0.714,2.452-1.38,4.918-2.035,7.387c-0.28,1.058-0.559,2.117-0.838,3.176
			c-0.208,0.792-0.407,3.467-1.286,2.878c-0.223,0.756,0.77-0.675,0.275,1.056c-0.232,0.811-0.532,1.601-0.804,2.399
			c-0.646,1.892-1.058,3.874-0.179,5.771c0.618,1.333,0.546,1.147-0.329,2.212c-0.787,0.958,0.1,1.633,1.009,1.749
			c0.004,1.775-0.263,3.519,0.003,5.369c0.372,2.581,1.389,5.005,2.417,7.381c2.054,4.75,5.542,8.697,7.363,13.576
			c1.851,4.959,2.427,10.25,3.671,15.368c1.133,4.66,4.349,8.356,5.502,13.034c1.236,5.014,1.626,9.84,3.942,14.539
			c2.339,4.747,3.437,9.958,4.758,15.046c0.566,2.181,1.054,3.581,2.495,5.283c1.104,1.303,1.117,3.028,2.248,4.192
			c1.206,1.241-0.04,2.658-1.154,1.487c-0.542-0.569-0.771-1.405-1.056-2.115c-0.285-0.712,0.633-1.44,0.121-1.721
			c-0.105,0.41-0.209,0.82-0.314,1.23c-5.91-6.641-9.767-14.895-13.979-22.645c-2.296-4.226-4.23-8.634-6.391-12.929
			c-1.01-2.008-1.972-4.091-3.481-5.782c-0.499-0.56-3.961-3.802-3.636-4.014c-0.138-0.04-0.199,0.018-0.181,0.174
			c-1.532-3.489-3.552-6.746-4.981-10.283c-1.316-3.258-1.341-6.799-3.057-9.898c-1.655-2.989-2.756-5.743-3.966-8.92
			c-0.674-1.768-1.5-3.473-2.275-5.197c-0.393-0.874-0.775-1.752-1.121-2.646c-0.435-1.125,0.432-1.141,0.262-1.4
			C212.296,302.804,212.111,302.987,211.925,303.169C210.536,301.514,212.111,302.987,211.925,303.169z"/>
		<path fill-rule="evenodd" clip-rule="evenodd" fill="#DFB883" d="M365.836,293.052c0.543,0.522,2.503,1.505,2.386,2.42
			c-0.185,1.441-0.692,0.124-1.277-0.175c-0.438-0.224-2.904,2.789-3.413,3.208c-1.484,1.22-3.153,2.207-4.91,2.98
			c-3.526,1.551-7.287,1.984-11.03,2.725c-4.95,0.979-9.868,1.684-14.856,2.403c-4.399,0.634-8.888,1.589-13.346,0.979
			c-1.571-0.215-2.878,0.899-4.377,1.116c-1.265,0.183-3.83-0.997-3.581-2.584c0.163-1.038,1.624-2.241,2.225-3.049
			c1.058-1.423,2.131-3.023,3.658-3.986c1.317-0.831,2.26-1.117,3.37-2.289c0.342-0.362,0.748-0.658,1.27-0.66
			c0.537-0.076,0.837,0.167,0.898,0.728c0.471-0.285,0.354-0.479-0.352-0.583c6.45-1.156,12.176-4.648,18.198-7.043
			c6.924-2.752,13.874-5.264,21.089-7.104c-0.693,2.431,3.632,2.439,3.757,4.585c0.035,0.595-0.299,1.16-0.642,1.617
			c-0.857,1.143,0.408,1.404,1.376,2.07c1.702,1.173,1.017,1.707-0.473,2.672c-0.013-0.13-0.064-0.241-0.155-0.333
			C365.712,292.849,365.774,292.951,365.836,293.052C366.681,293.865,365.774,292.95,365.836,293.052z"/>
		<path fill-rule="evenodd" clip-rule="evenodd" fill="#802E02" d="M273.44,444.568c-0.09-0.18-0.179-0.359-0.269-0.539
			c0.672-0.305,0.53-0.277,0.868,0.186C273.839,444.333,273.64,444.45,273.44,444.568
			C273.333,444.352,273.694,444.418,273.44,444.568z"/>
		<path fill-rule="evenodd" clip-rule="evenodd" fill="#802E02" d="M325.29,405.909c-0.319-0.132-0.639-0.264-0.958-0.396
			C324.668,405.065,324.797,404.799,325.29,405.909z"/>
		<path fill-rule="evenodd" clip-rule="evenodd" fill="#DFB883" d="M208.726,297.643c-0.388-0.141-0.424-0.267-0.107-0.377
			C208.566,297.646,208.602,297.771,208.726,297.643z"/>
		<path fill-rule="evenodd" clip-rule="evenodd" fill="#DFB883" d="M225.292,294.876c0.365,0.121,0.398,0.235,0.099,0.343
			C225.442,294.873,225.409,294.759,225.292,294.876z"/>
		<path fill-rule="evenodd" clip-rule="evenodd" fill="#DFB883" d="M239.481,332.709
			C238.984,332.813,239.579,332.217,239.481,332.709C239.43,332.72,239.493,332.65,239.481,332.709z"/>
		<path fill-rule="evenodd" clip-rule="evenodd" fill="#DFB883" d="M208.951,266.524
			C208.971,266.288,208.97,266.292,208.951,266.524L208.951,266.524z"/>
		<path fill-rule="evenodd" clip-rule="evenodd" fill="#DFB883" d="M225.326,293.522C225.41,293.161,225.33,293.507,225.326,293.522
			L225.326,293.522z"/>
		<path fill-rule="evenodd" clip-rule="evenodd" fill="#103D6D" d="M240.11,104.179c0.019,0.918-0.268,1.144-0.859,0.678
			C239.492,103.893,239.778,103.667,240.11,104.179C240.003,104.482,240.035,104.105,240.11,104.179z"/>
		<path fill-rule="evenodd" clip-rule="evenodd" fill="#DFB883" d="M376.731,401.053c-0.41-0.351-0.819-0.702-1.229-1.052
			c0.295-0.291,0.59-0.581,0.885-0.872C376.715,399.846,377.383,400.444,376.731,401.053
			C376.322,400.702,376.857,400.935,376.731,401.053z"/>
		<path fill-rule="evenodd" clip-rule="evenodd" fill="#802E02" d="M221.4,210.546c0.128,0.339,0.256,0.678,0.384,1.017
			C221.025,211.467,220.896,211.128,221.4,210.546C221.528,210.885,221.307,210.777,221.4,210.546z"/>
		<path fill-rule="evenodd" clip-rule="evenodd" fill="#DFB883" d="M221.4,210.546c-0.117,0.921-0.456,0.945-1.016,0.071
			C220.723,210.594,221.061,210.57,221.4,210.546C221.307,210.777,221.062,210.57,221.4,210.546z"/>
		<path fill-rule="evenodd" clip-rule="evenodd" fill="#DFB883" d="M306.598,450.015c0.303-0.396,0.424-0.3,0.352,0.153
			C306.832,450.118,306.715,450.066,306.598,450.015C306.671,449.919,306.716,450.073,306.598,450.015z"/>
		<path fill-rule="evenodd" clip-rule="evenodd" fill="#802E02" d="M276.825,465.508C276.769,465.982,276.39,465.37,276.825,465.508
			C276.818,465.562,276.77,465.491,276.825,465.508z"/>
		<path fill-rule="evenodd" clip-rule="evenodd" fill="#DFB883" d="M276.457,469.947
			C275.992,469.673,276.38,469.883,276.457,469.947C276.382,469.903,276.457,469.947,276.457,469.947z"/>
		<path fill-rule="evenodd" clip-rule="evenodd" fill="#AD4202" d="M255.287,386.161c0.104-0.41,0.209-0.82,0.314-1.23
			C256.078,385.192,255.562,385.864,255.287,386.161z"/>
		<path fill-rule="evenodd" clip-rule="evenodd" fill="#AD4202" d="M211.925,303.169c0.186-0.183,0.372-0.365,0.558-0.548
			C212.751,303.034,212.109,303.029,211.925,303.169z"/>
		<path fill-rule="evenodd" clip-rule="evenodd" fill="#AD4202" d="M225.796,280.554c-0.47,0.124-0.629,0.041-0.478-0.249
			C225.528,280.66,225.687,280.743,225.796,280.554z"/>
		<path fill-rule="evenodd" clip-rule="evenodd" fill="#AD4202" d="M227.62,340.965C227.68,340.702,227.793,340.698,227.62,340.965
			C227.633,340.907,227.62,340.965,227.62,340.965z"/>
		<path fill-rule="evenodd" clip-rule="evenodd" fill="#AD4202" d="M322.5,296.283c0.21,0.104,0.421,0.209,0.631,0.314
			C322.593,297.116,322.896,296.643,322.5,296.283z"/>
		<path fill-rule="evenodd" clip-rule="evenodd" fill="#AD4202" d="M365.836,293.052c-0.062-0.101-0.124-0.203-0.186-0.304
			C365.684,292.791,365.87,293.109,365.836,293.052z"/>
	</g>
</g>
</svg>
